<?xml version="1.0" encoding="UTF-8"?>
<svg version="1.1" xmlns="http://www.w3.org/2000/svg" width="361" height="440">
<path d="M0 0 C119.13 0 238.26 0 361 0 C361 145.2 361 290.4 361 440 C241.87 440 122.74 440 0 440 C0 294.8 0 149.6 0 0 Z " fill="#F6F7F6" transform="translate(0,0)"/>
<path d="M0 0 C8.21385022 1.1513896 15.90083439 2.95512372 23.75 5.625 C24.7905957 5.97618896 25.83119141 6.32737793 26.90332031 6.68920898 C39.27863095 10.98231327 50.46579582 16.88342671 61.64453125 23.65234375 C64.02838348 25.11870634 64.02838348 25.11870634 67 26 C68.3568531 27.30939116 69.68756343 28.64609239 71 30 C72.52517399 31.24957237 74.06795456 32.47787349 75.625 33.6875 C87.38097226 43.00583684 97.83883848 53.12513307 107 65 C107.48984375 65.59941406 107.9796875 66.19882813 108.484375 66.81640625 C123.46722486 85.62914188 132.38935189 108.85607655 138 132 C138.17789063 132.68932617 138.35578125 133.37865234 138.5390625 134.08886719 C146.19193074 164.65478735 141.69583883 200.70205836 130.83740234 229.75683594 C130.07031624 231.81164267 129.33634383 233.8747 128.61328125 235.9453125 C126.67702472 241.30819336 124.72112171 245.92792521 121.17578125 250.40625 C119.89846765 252.13762524 119.03352338 253.8640073 118.125 255.8125 C115.64536664 260.94888339 112.36777636 265.41353414 109 270 C108.33742188 270.94359375 107.67484375 271.8871875 106.9921875 272.859375 C95.85037367 288.15510548 82.0286174 301.89708745 66 312 C65.32775391 312.43135254 64.65550781 312.86270508 63.96289062 313.30712891 C59.34600021 316.26713436 54.70104467 319.17546773 50 322 C49.42000244 322.35352539 48.84000488 322.70705078 48.24243164 323.07128906 C44.06307792 325.55360753 39.86403672 327.36120169 35.3125 329 C34.25832886 329.38454346 34.25832886 329.38454346 33.18286133 329.77685547 C31.77061602 330.28925879 30.35714475 330.79829761 28.94238281 331.30371094 C27.27725687 331.90061129 25.61841342 332.51498728 23.9609375 333.1328125 C14.46280965 336.5307343 3.1690097 340 -7 340 C-6.17133849 334.32884778 -4.58755313 329.01308999 -2.9375 323.53515625 C-2.00700373 320.0264099 -1.44137593 316.59997244 -1 313 C-1.99 313 -2.98 313 -4 313 C-4.33 314.65 -4.66 316.3 -5 318 C-5.99 318 -6.98 318 -8 318 C-8 317.34 -8 316.68 -8 316 C-8.66 316 -9.32 316 -10 316 C-9.97643433 314.88310791 -9.97643433 314.88310791 -9.95239258 313.74365234 C-9.29727858 294.1198171 -9.29727858 294.1198171 -13 275 C-13.29801514 274.0728418 -13.29801514 274.0728418 -13.60205078 273.12695312 C-18.97734202 256.74741397 -27.20296164 243.35886873 -37.52734375 229.640625 C-55.83878244 205.292173 -66.4361389 180.62337064 -62.69824219 149.48632812 C-59.73489772 130.3004699 -51.34902948 112.79815558 -42 96 C-43.485 96.495 -43.485 96.495 -45 97 C-46.485 97.495 -46.485 97.495 -48 98 C-48 97.01 -48 96.02 -48 95 C-46.865625 94.5875 -45.73125 94.175 -44.5625 93.75 C-41.00315426 92.44790556 -41.00315426 92.44790556 -40.125 90.25 C-40.08375 89.5075 -40.0425 88.765 -40 88 C-39.814375 86.865625 -39.62875 85.73125 -39.4375 84.5625 C-39.07957941 81.64800379 -38.91128952 78.92744576 -39 76 C-36.87037985 79.19443022 -35.76980868 82.15162783 -34.4375 85.75 C-29.68181496 98.00319853 -22.64786024 108.49197221 -14.54296875 118.76171875 C-4.17069239 131.90579326 5.18832733 145.77846986 10 162 C10.53560547 163.75763672 10.53560547 163.75763672 11.08203125 165.55078125 C12.42779204 171.06904751 12.32949989 176.59923613 12.3125 182.25 C12.32861328 183.30574219 12.34472656 184.36148438 12.36132812 185.44921875 C12.37428731 206.62452911 2.59383801 225.84111974 -9 243 C11.67262429 233.98321706 25.68325327 217.69255479 34 197 C42.2301561 175.38709715 39.59795909 150.54132159 30.625 129.6875 C29.451583 127.1075816 28.2325913 124.55205501 27 122 C26.57332031 121.0821875 26.14664063 120.164375 25.70703125 119.21875 C21.63279504 111.0953498 15.95485423 104.03558678 10.54296875 96.77734375 C-3.92491863 77.33309221 -15.17612193 56.53556422 -15.125 31.5625 C-15.12886719 29.67724609 -15.12886719 29.67724609 -15.1328125 27.75390625 C-15.00243134 24.06872098 -14.59062733 20.63282683 -14 17 C-13.67 17 -13.34 17 -13 17 C-12.505 27.395 -12.505 27.395 -12 38 C-10.35 38 -8.7 38 -7 38 C-7 36.68 -7 35.36 -7 34 C-6.34 34 -5.68 34 -5 34 C-5.05800781 33.13761719 -5.11601562 32.27523437 -5.17578125 31.38671875 C-5.58760337 20.24398878 -3.20322261 10.62783502 0 0 Z " fill="#F6F7F6" transform="translate(207,50)"/>
<path d="M0 0 C-0.47050781 1.17433594 -0.94101563 2.34867188 -1.42578125 3.55859375 C-5.61638797 14.29709359 -8.46433635 24.57758755 -10 36 C-13.39416543 37.1508153 -16.79060608 38.2947661 -20.1875 39.4375 C-21.14720703 39.76298828 -22.10691406 40.08847656 -23.09570312 40.42382812 C-24.02705078 40.73642578 -24.95839844 41.04902344 -25.91796875 41.37109375 C-26.77156982 41.65911865 -27.6251709 41.94714355 -28.50463867 42.24389648 C-30.98810913 42.99639702 -33.4485968 43.53447381 -36 44 C-36 44.66 -36 45.32 -36 46 C-36.87398437 46.29390625 -36.87398437 46.29390625 -37.765625 46.59375 C-47.77791385 50.24603147 -56.17676414 56.38494371 -64.4765625 62.96875 C-66 64 -66 64 -68 64 C-68.495 65.485 -68.495 65.485 -69 67 C-70.56640625 68.5078125 -70.56640625 68.5078125 -72.5625 70.125 C-93.20658065 87.76230514 -106.50471829 113.47574372 -112.625 139.5625 C-112.8415625 140.45646484 -113.058125 141.35042969 -113.28125 142.27148438 C-118.76265724 165.39828593 -115.78565811 188.24667167 -110 211 C-109.77570313 211.92683594 -109.55140625 212.85367188 -109.3203125 213.80859375 C-107.3149066 221.34743444 -103.66848055 228.15552478 -100 235 C-99.62858887 235.70125 -99.25717773 236.4025 -98.87451172 237.125 C-95.89041096 242.64588541 -92.55236633 247.79224958 -88.875 252.875 C-88.31095459 253.65512451 -87.74690918 254.43524902 -87.16577148 255.23901367 C-82.31276397 261.81750471 -77.06988642 267.52500278 -71 273 C-70.45085937 273.50402344 -69.90171875 274.00804687 -69.3359375 274.52734375 C-51.06967105 290.49757112 -29.92463068 299.41096591 -6.78735352 305.44677734 C-5 306 -5 306 -4 307 C-3.38307484 318.42497947 -3.9649232 328.92558288 -7 340 C-9.31 340 -11.62 340 -14 340 C-14 339.34 -14 338.68 -14 338 C-14.53625 337.98582031 -15.0725 337.97164063 -15.625 337.95703125 C-39.81313858 336.48505571 -64.1920065 322.46130986 -83 308 C-83.9075 307.31679688 -84.815 306.63359375 -85.75 305.9296875 C-98.40231534 296.02623829 -110.00905193 284.32899306 -119 271 C-120.11761719 269.37191406 -120.11761719 269.37191406 -121.2578125 267.7109375 C-126.5864875 259.78670391 -130.9699823 251.51575658 -135.07495117 242.90234375 C-135.70651506 241.60354569 -136.35876658 240.31465621 -137.02856445 239.03515625 C-139.45761787 234.38084626 -141.16176315 229.8042232 -142.5625 224.75 C-142.87828003 223.64192993 -142.87828003 223.64192993 -143.20043945 222.51147461 C-144.93415281 216.37387623 -146.56578334 210.21493887 -148 204 C-148.19464844 203.16339844 -148.38929688 202.32679688 -148.58984375 201.46484375 C-157.22298973 161.70195973 -147.88071615 118.82470997 -128 84 C-127.59233398 83.28392578 -127.18466797 82.56785156 -126.76464844 81.83007812 C-121.19244372 72.17878569 -114.77927592 63.72509053 -107.31298828 55.46435547 C-105.58175458 53.53353737 -103.92092213 51.54553059 -102.25 49.5625 C-96.92248041 43.51085153 -90.71787193 38.43379548 -84 34 C-83.34 34 -82.68 34 -82 34 C-81.67 33.01 -81.34 32.02 -81 31 C-78.69560288 29.33771354 -76.42493749 27.84153142 -74 26.375 C-73.28521484 25.93768555 -72.57042969 25.50037109 -71.83398438 25.04980469 C-50.56263069 12.18870287 -25.4680869 -0.44943683 0 0 Z " fill="#EDDE16" transform="translate(164,50)"/>
<path d="M0 0 C8.21385022 1.1513896 15.90083439 2.95512372 23.75 5.625 C24.7905957 5.97618896 25.83119141 6.32737793 26.90332031 6.68920898 C39.27863095 10.98231327 50.46579582 16.88342671 61.64453125 23.65234375 C64.02838348 25.11870634 64.02838348 25.11870634 67 26 C68.3568531 27.30939116 69.68756343 28.64609239 71 30 C72.52517399 31.24957237 74.06795456 32.47787349 75.625 33.6875 C87.38097226 43.00583684 97.83883848 53.12513307 107 65 C107.48984375 65.59941406 107.9796875 66.19882813 108.484375 66.81640625 C123.46722486 85.62914188 132.38935189 108.85607655 138 132 C138.17789063 132.68932617 138.35578125 133.37865234 138.5390625 134.08886719 C146.19193074 164.65478735 141.69583883 200.70205836 130.83740234 229.75683594 C130.07031624 231.81164267 129.33634383 233.8747 128.61328125 235.9453125 C126.67702472 241.30819336 124.72112171 245.92792521 121.17578125 250.40625 C119.89846765 252.13762524 119.03352338 253.8640073 118.125 255.8125 C115.64536664 260.94888339 112.36777636 265.41353414 109 270 C108.00613281 271.41539062 108.00613281 271.41539062 106.9921875 272.859375 C95.85037367 288.15510548 82.0286174 301.89708745 66 312 C65.32775391 312.43135254 64.65550781 312.86270508 63.96289062 313.30712891 C59.34600021 316.26713436 54.70104467 319.17546773 50 322 C49.13000366 322.53028809 49.13000366 322.53028809 48.24243164 323.07128906 C44.06307792 325.55360753 39.86403672 327.36120169 35.3125 329 C34.60971924 329.2563623 33.90693848 329.51272461 33.18286133 329.77685547 C31.77061602 330.28925879 30.35714475 330.79829761 28.94238281 331.30371094 C27.27725687 331.90061129 25.61841342 332.51498728 23.9609375 333.1328125 C14.46280965 336.5307343 3.1690097 340 -7 340 C-6.37572539 335.71374341 -5.36174442 331.75316529 -4.0625 327.625 C-1.77256753 319.83090256 -0.79620149 312.06677827 0 304 C0.53657227 303.82694336 1.07314453 303.65388672 1.62597656 303.47558594 C19.18088379 297.72993066 36.01970196 290.92847831 50.7578125 279.6015625 C53 278 53 278 56 277 C56.556875 276.29875 57.11375 275.5975 57.6875 274.875 C59.59116643 272.50827957 61.190085 270.95156092 63.5 269.0625 C79.04241242 255.72798168 91.53676598 236.38970207 98 217 C98.49862051 215.74944909 98.99868403 214.49947281 99.5 213.25 C104.55562916 199.69773755 106.3615187 185.52036748 106.31567383 171.13696289 C106.3125084 169.06798761 106.33609586 167.00044124 106.36132812 164.93164062 C106.39665119 157.26185716 105.70191729 150.22592233 103.72460938 142.79785156 C103.02490749 140.09617244 102.56926726 137.44982746 102.1875 134.6875 C98.57216538 114.08009267 86.48662891 94.49719838 73 79 C72.24074219 78.09507812 71.48148437 77.19015625 70.69921875 76.2578125 C60.82803844 64.85183329 48.99287236 56.5073612 36 49 C35.13375 48.46761719 34.2675 47.93523437 33.375 47.38671875 C21.72976005 40.51673726 8.11209103 36.930938 -5 34 C-5.81750814 21.84637905 -3.49425484 11.59343838 0 0 Z " fill="#EDDE16" transform="translate(207,50)"/>
<path d="M0 0 C0.66 0.33 1.32 0.66 2 1 C1.66790527 1.6077124 1.33581055 2.2154248 0.99365234 2.84155273 C-15.16556316 32.59569617 -25.51152692 62.15208351 -16 96 C-11.37912332 111.06327419 -2.91438447 123.68968957 6.54833984 136.09179688 C26.14908881 161.84241377 36.16141706 188.75059416 32.73193359 221.56494141 C30.41566237 236.35697048 22.80022528 249.9151786 13 261 C12.54496094 261.59683594 12.08992188 262.19367188 11.62109375 262.80859375 C5.34038656 270.92664215 -4.48788752 278.23104977 -14 282 C-14.66 281.67 -15.32 281.34 -16 281 C-15.50371094 280.22398437 -15.00742188 279.44796875 -14.49609375 278.6484375 C0.00151161 255.5953193 9.37796287 231.53223684 4.38671875 203.80859375 C-0.296468 186.00423178 -11.23755625 170.00505462 -22.4375 155.6875 C-41.64459109 130.99985151 -51.52601472 103.54390947 -49 72 C-46.29338797 53.46658884 -37.86754497 34.69554352 -25 21 C-24.29834717 20.23913086 -24.29834717 20.23913086 -23.58251953 19.46289062 C-16.38775974 11.7164342 -9.12055904 5.43946854 0 0 Z " fill="#03ACED" transform="translate(213,12)"/>
<path d="M0 0 C0.66 0.33 1.32 0.66 2 1 C1.50371094 1.825 1.00742188 2.65 0.49609375 3.5 C-14.67010008 29.10775181 -25.39529164 59.60149553 -18.61523438 89.59838867 C-13.66705449 108.41129004 -3.86208823 123.46827651 7.86328125 138.734375 C23.08756279 158.69670309 33.46046352 180.94917466 33.3125 206.4375 C33.30512817 207.95126221 33.30512817 207.95126221 33.29760742 209.49560547 C33.18395838 216.71435919 32.4767985 223.17637041 30 230 C29.64808594 231.04929687 29.29617187 232.09859375 28.93359375 233.1796875 C21.22613334 254.8012761 6.69103571 271.40266461 -13.328125 282.390625 C-13.87984375 282.59171875 -14.4315625 282.7928125 -15 283 C-15.66 282.67 -16.32 282.34 -17 282 C-16.43152344 281.16339844 -15.86304688 280.32679688 -15.27734375 279.46484375 C-6.96088727 267.01639105 -0.98387841 254.50056219 3 240 C3.35707031 238.92492187 3.71414062 237.84984375 4.08203125 236.7421875 C9.039597 216.53219604 2.82986121 196.5219274 -7 179 C-7.495 178.08734375 -7.99 177.1746875 -8.5 176.234375 C-11.91434285 170.22047567 -16.10873797 164.85206001 -20.3515625 159.4140625 C-31.82758009 144.6736803 -40.86856499 130.11552058 -46 112 C-46.3196875 110.96359375 -46.639375 109.9271875 -46.96875 108.859375 C-51.17522074 93.04616091 -51.00846958 73.59317048 -46 58 C-45.50693359 56.43572266 -45.50693359 56.43572266 -45.00390625 54.83984375 C-37.15586479 32.49057688 -21.44541867 11.02475748 0 0 Z " fill="#03ACED" transform="translate(165,144)"/>
<path d="M0 0 C0.41378906 0.90492188 0.41378906 0.90492188 0.8359375 1.828125 C2.40384813 4.75348846 4.60490764 6.73096514 7 9 C7.928125 8.505 8.85625 8.01 9.8125 7.5 C13 6 13 6 16 6 C8.8487896 15.38260311 -2.73417423 25.89376444 -14 30 C-14.66 29.67 -15.32 29.34 -16 29 C-15.43152344 28.16339844 -14.86304688 27.32679688 -14.27734375 26.46484375 C-8.61533528 17.98106058 -4.07066927 9.34552366 0 0 Z " fill="#0AACE9" transform="translate(164,397)"/>
<path d="M0 0 C0.33 0 0.66 0 1 0 C1 4.29 1 8.58 1 13 C0.34 13 -0.32 13 -1 13 C-1 26.2 -1 39.4 -1 53 C-0.34 53 0.32 53 1 53 C1.06058594 53.85464844 1.12117188 54.70929688 1.18359375 55.58984375 C1.26738281 56.69457031 1.35117187 57.79929688 1.4375 58.9375 C1.51871094 60.03964844 1.59992187 61.14179688 1.68359375 62.27734375 C1.70418084 64.91109903 1.70418084 64.91109903 3 66 C3.07179964 67.51928038 3.08392007 69.04167482 3.0625 70.5625 C3.05347656 71.38878906 3.04445313 72.21507812 3.03515625 73.06640625 C3.02355469 73.70449219 3.01195312 74.34257812 3 75 C3.66 75 4.32 75 5 75 C5.99 81.435 5.99 81.435 7 88 C7.66 88 8.32 88 9 88 C9.33 90.97 9.66 93.94 10 97 C8 96 8 96 6.81640625 92.60546875 C6.38964779 91.13533559 5.97225553 89.66246261 5.5625 88.1875 C5.23318481 87.03205688 5.23318481 87.03205688 4.8972168 85.85327148 C3.13045704 79.60160998 1.46093797 73.33073119 0 67 C-0.19464844 66.16339844 -0.38929687 65.32679688 -0.58984375 64.46484375 C-5.09382928 43.72020965 -4.33046051 20.71598677 0 0 Z " fill="#E8DE4F" transform="translate(16,187)"/>
<path d="M0 0 C0.66 0.33 1.32 0.66 2 1 C1.34773438 2.11632813 0.69546875 3.23265625 0.0234375 4.3828125 C-12.33580115 26.20422371 -17.96787773 49.33745731 -12.4375 74.25 C-12.14746094 75.28640625 -11.85742188 76.3228125 -11.55859375 77.390625 C-10.9884833 80.05379829 -11.08963141 81.46784896 -12 84 C-12 83.34 -12 82.68 -12 82 C-12.66 82 -13.32 82 -14 82 C-14.22786458 79.94921875 -14.45572917 77.8984375 -14.68359375 75.84765625 C-14.81886614 73.98859771 -14.81886614 73.98859771 -16 73 C-16.1259667 70.34286605 -16.18868088 67.7131921 -16.203125 65.0546875 C-16.20882507 64.2514505 -16.21452515 63.4482135 -16.22039795 62.62063599 C-16.22986667 60.9140963 -16.23638932 59.20753818 -16.24023438 57.50097656 C-16.2498826 54.9065678 -16.28086316 52.31297065 -16.3125 49.71875 C-16.31903572 48.05990053 -16.32428395 46.4010454 -16.328125 44.7421875 C-16.3404718 43.97212372 -16.3528186 43.20205994 -16.36553955 42.40866089 C-16.34427243 37.18587096 -15.27454568 33.69795195 -13 29 C-12.51943896 26.5209427 -12.51943896 26.5209427 -12.4375 24.25 C-12.24026617 20.83128025 -12.01376107 20.02064161 -10 17 C-9.34 17 -8.68 17 -8 17 C-7.34 14.03 -6.68 11.06 -6 8 C-5.34 8 -4.68 8 -4 8 C-3.34 6.02 -2.68 4.04 -2 2 C-1.34 2 -0.68 2 0 2 C0 1.34 0 0.68 0 0 Z " fill="#DAFDFE" transform="translate(179,42)"/>
<path d="M0 0 C10.65529653 13.19522187 12.2155334 32.04199119 11.28515625 48.359375 C10.55053835 55.16213801 8.34671952 61.60518932 6 68 C5.67 68 5.34 68 5 68 C5.2371595 66.10272403 5.47477141 64.20550335 5.71484375 62.30859375 C5.90352732 60.78103223 6.08335736 59.25234862 6.25390625 57.72265625 C6.89375 52.10625 6.89375 52.10625 8 51 C8.15786308 49.14825294 8.25107356 47.2909089 8.31640625 45.43359375 C8.35830078 44.30888672 8.40019531 43.18417969 8.44335938 42.02539062 C8.48267578 40.84138672 8.52199219 39.65738281 8.5625 38.4375 C8.60568359 37.24962891 8.64886719 36.06175781 8.69335938 34.83789062 C8.79983546 31.89205216 8.90184841 28.9461257 9 26 C8.34 26 7.68 26 7 26 C6.896875 24.7625 6.79375 23.525 6.6875 22.25 C6.25033499 18.58552862 5.24211098 16.92449258 3 14 C2.8125 10.75 2.8125 10.75 3 8 C2.34 8 1.68 8 1 8 C0.67 5.36 0.34 2.72 0 0 Z " fill="#CCF6FD" transform="translate(160,326)"/>
<path d="M0 0 C0.33 1.32 0.66 2.64 1 4 C2.11375 3.95875 3.2275 3.9175 4.375 3.875 C8 4 8 4 10 6 C4.35829885 11.46388249 -1.70709637 15.95515135 -9 19 C-9.66 18.67 -10.32 18.34 -11 18 C-10.45730469 17.11957031 -9.91460937 16.23914063 -9.35546875 15.33203125 C-8.6327974 14.15886347 -7.91014199 12.98568586 -7.1875 11.8125 C-6.83107422 11.23435547 -6.47464844 10.65621094 -6.10742188 10.06054688 C-4.05005201 6.71968022 -2.0111754 3.36887741 0 0 Z " fill="#0CACE8" transform="translate(208,275)"/>
<path d="M0 0 C0.66 0 1.32 0 2 0 C-1.68803908 16.26249615 -8.78778318 30.22801388 -18 44 C-17.18015625 43.59007812 -16.3603125 43.18015625 -15.515625 42.7578125 C-11.01041667 40.50520833 -6.50520833 38.25260417 -2 36 C-3.450954 39.82524236 -5.38181932 41.19090966 -9 43 C-9.66 43 -10.32 43 -11 43 C-10.67 43.99 -10.34 44.98 -10 46 C-13.33333333 46 -16.66666667 46 -20 46 C-19.67 43.69 -19.34 41.38 -19 39 C-18.34 39 -17.68 39 -17 39 C-16.71125 38.071875 -16.4225 37.14375 -16.125 36.1875 C-15 33 -15 33 -13 30 C-12.34 30 -11.68 30 -11 30 C-11 28.68 -11 27.36 -11 26 C-10.34 26 -9.68 26 -9 26 C-9 25.01 -9 24.02 -9 23 C-8.34 23 -7.68 23 -7 23 C-7 21.35 -7 19.7 -7 18 C-6.34 18 -5.68 18 -5 18 C-4.80664062 17.28714844 -4.61328125 16.57429688 -4.4140625 15.83984375 C-2.97587225 10.54986672 -1.52147368 5.26663967 0 0 Z " fill="#D1F7FD" transform="translate(216,249)"/>
<path d="M0 0 C2.22337519 3.33506279 2.75550146 5.77926101 3.5625 9.6875 C3.81128906 10.86699219 4.06007813 12.04648438 4.31640625 13.26171875 C5.53608239 19.93160482 6.15722862 26.38650818 6.16796875 33.1640625 C6.17129715 33.91859711 6.17462555 34.67313171 6.17805481 35.45053101 C6.18308439 37.03879189 6.18546437 38.62706319 6.18530273 40.21533203 C6.18747553 42.59816736 6.20563606 44.98052833 6.22460938 47.36328125 C6.25798482 56.77369067 5.65637733 65.71114852 4 75 C3.67 75 3.34 75 3 75 C2.97315321 72.35409986 2.95323643 69.70846904 2.9375 67.0625 C2.92912109 66.30775391 2.92074219 65.55300781 2.91210938 64.77539062 C2.90347559 62.85005687 2.94775667 60.92464419 3 59 C3.495 58.505 3.495 58.505 4 58 C4.15858842 55.85613343 4.25129298 53.70733162 4.31640625 51.55859375 C4.35830078 50.25341797 4.40019531 48.94824219 4.44335938 47.60351562 C4.48317608 46.2148467 4.52288825 44.82617478 4.5625 43.4375 C4.60567989 42.04490817 4.649294 40.65232972 4.69335938 39.25976562 C4.79985876 35.83995199 4.90186923 32.42006237 5 29 C4.34 29 3.68 29 3 29 C2.93941406 28.01257813 2.87882812 27.02515625 2.81640625 26.0078125 C2.73261719 24.72648437 2.64882813 23.44515625 2.5625 22.125 C2.44068359 20.21074219 2.44068359 20.21074219 2.31640625 18.2578125 C2.20793973 15.11699848 2.20793973 15.11699848 1 13 C0.77049681 10.795636 0.58924067 8.58607827 0.4375 6.375 C0.35371094 5.18648437 0.26992188 3.99796875 0.18359375 2.7734375 C0.12300781 1.85820312 0.06242187 0.94296875 0 0 Z " fill="#E8DD41" transform="translate(342,175)"/>
<path d="M0 0 C0.33 0 0.66 0 1 0 C0.98952637 1.13840332 0.97905273 2.27680664 0.96826172 3.44970703 C0.93160981 7.74003865 0.90893796 12.03035693 0.89013672 16.32080078 C0.88018074 18.16522562 0.86661108 20.00963512 0.84912109 21.85400391 C0.7491409 32.68127104 0.67243565 43.36001171 3 54 C3.33 54.33 3.66 54.66 4 55 C4.07179964 56.51928038 4.08392007 58.04167482 4.0625 59.5625 C4.05347656 60.38878906 4.04445313 61.21507812 4.03515625 62.06640625 C4.02355469 62.70449219 4.01195312 63.34257812 4 64 C3.67 64 3.34 64 3 64 C2.34655186 61.20992842 1.70215598 58.41823822 1.0625 55.625 C0.88009766 54.85027344 0.69769531 54.07554687 0.50976562 53.27734375 C-1.6065419 43.96559066 -2.19425395 34.78151368 -2.1875 25.25 C-2.18814453 24.29786621 -2.18878906 23.34573242 -2.18945312 22.36474609 C-2.13288554 14.76026292 -1.42974673 7.48063913 0 0 Z " fill="#F9F2A9" transform="translate(49,194)"/>
<path d="M0 0 C0.66 0.33 1.32 0.66 2 1 C1.45730469 1.94101563 0.91460937 2.88203125 0.35546875 3.8515625 C-0.36727516 5.10932463 -1.08992648 6.36713997 -1.8125 7.625 C-2.16892578 8.24246094 -2.52535156 8.85992187 -2.89257812 9.49609375 C-5.05913172 13.27265506 -7.0904299 17.08447772 -9 21 C-9.33 21 -9.66 21 -10 21 C-10.08886184 17.80097361 -9.91058531 15.07322544 -9 12 C-11.47266765 12.34444881 -11.47266765 12.34444881 -14 13 C-14.33 13.66 -14.66 14.32 -15 15 C-16.32 14.67 -17.64 14.34 -19 14 C-16.77363942 12.2255394 -14.54408033 10.45537533 -12.3125 8.6875 C-11.68666016 8.18798828 -11.06082031 7.68847656 -10.41601562 7.17382812 C-3.63947631 1.81645935 -3.63947631 1.81645935 0 0 Z " fill="#15ABE1" transform="translate(165,144)"/>
<path d="M0 0 C0.66 0.33 1.32 0.66 2 1 C-1.63 7.93 -5.26 14.86 -9 22 C-10 18 -10 18 -9.4375 15.4375 C-8.66489008 12.75194866 -8.66489008 12.75194866 -11 10 C-11.99 10.99 -12.98 11.98 -14 13 C-14.66 12.67 -15.32 12.34 -16 12 C-5.85799286 2.64022213 -5.85799286 2.64022213 0 0 Z " fill="#1AABE1" transform="translate(213,12)"/>
<path d="M0 0 C0.99 0 1.98 0 3 0 C3.40992188 1.09699219 3.81984375 2.19398438 4.2421875 3.32421875 C4.78642886 4.77865686 5.33070133 6.23308333 5.875 7.6875 C6.14441406 8.40873047 6.41382813 9.12996094 6.69140625 9.87304688 C7.7907768 12.80917065 8.89403331 15.7381772 10.0703125 18.64453125 C10.37710938 19.42183594 10.68390625 20.19914062 11 21 C11.34369629 21.87003662 11.68739258 22.74007324 12.04150391 23.63647461 C13.15241679 27.53485637 13.28794778 31.15588476 13.265625 35.171875 C13.26753845 35.93550354 13.2694519 36.69913208 13.27142334 37.48590088 C13.2727774 39.08939954 13.26913567 40.69290945 13.26074219 42.29638672 C13.24997184 44.75643223 13.2606938 47.21575735 13.2734375 49.67578125 C13.27211693 51.23698078 13.26955665 52.79817986 13.265625 54.359375 C13.26967346 55.09581238 13.27372192 55.83224976 13.27789307 56.59100342 C13.22996316 61.77003684 13.22996316 61.77003684 11 64 C11.02094727 63.14470703 11.04189453 62.28941406 11.06347656 61.40820312 C11.54590734 38.72784988 9.24915054 20.99245404 0 0 Z " fill="#BFF0FA" transform="translate(234,171)"/>
<path d="M0 0 C3.38629758 1.45127039 5.48853911 3.32650937 8 6 C8.556875 6.4125 9.11375 6.825 9.6875 7.25 C11.87892632 10.17190176 11.70593486 13.4124053 12 17 C12.66 17 13.32 17 14 17 C14 18.32 14 19.64 14 21 C14.66 21 15.32 21 16 21 C16 22.32 16 23.64 16 25 C16.66 25 17.32 25 18 25 C18 26.32 18 27.64 18 29 C18.66 29 19.32 29 20 29 C20.144375 30.134375 20.28875 31.26875 20.4375 32.4375 C20.61171478 35.80777201 20.61171478 35.80777201 22 37 C22.04063832 38.66617115 22.042721 40.33388095 22 42 C20.03788482 39.05682723 19.05489206 36.56689935 17.875 33.25 C13.72523425 22.30194154 8.21474658 12.17887595 1.25 2.7578125 C0 1 0 1 0 0 Z " fill="#CBF7FD" transform="translate(173,283)"/>
<path d="M0 0 C2.08432499 3.12648749 3.28558611 6.05730868 4.625 9.5625 C5.07101563 10.71878906 5.51703125 11.87507812 5.9765625 13.06640625 C7 16 7 16 7 18 C6.34 18 5.68 18 5 18 C5 17.01 5 16.02 5 15 C3.35 15.33 1.7 15.66 0 16 C-0.33 18.31 -0.66 20.62 -1 23 C-1.99 23.33 -2.98 23.66 -4 24 C-3.34 22.35 -2.68 20.7 -2 19 C-4.31 19.99 -6.62 20.98 -9 22 C-9 21.01 -9 20.02 -9 19 C-7.865625 18.5875 -6.73125 18.175 -5.5625 17.75 C-2.00315426 16.44790556 -2.00315426 16.44790556 -1.125 14.25 C-1.08375 13.5075 -1.0425 12.765 -1 12 C-0.814375 10.865625 -0.62875 9.73125 -0.4375 8.5625 C-0.07957941 5.64800379 0.08871048 2.92744576 0 0 Z " fill="#DAF7FC" transform="translate(168,126)"/>
<path d="M0 0 C2.99289875 3.48427019 4.49585713 7.36982166 6.0625 11.625 C6.31837891 12.28628906 6.57425781 12.94757813 6.83789062 13.62890625 C10.6329915 23.79470344 11.27540113 33.31925693 11.125 44.125 C11.11597656 45.36765625 11.10695312 46.6103125 11.09765625 47.890625 C11.07429729 50.92729004 11.04154283 53.96353853 11 57 C10.67 57 10.34 57 10 57 C9.97494385 56.2479126 9.9498877 55.4958252 9.92407227 54.72094727 C9.80849486 51.33460804 9.68559655 47.94857387 9.5625 44.5625 C9.52318359 43.37849609 9.48386719 42.19449219 9.44335938 40.97460938 C9.40146484 39.84990234 9.35957031 38.72519531 9.31640625 37.56640625 C9.27974854 36.52427979 9.24309082 35.48215332 9.20532227 34.40844727 C9.26484659 32.0500174 9.26484659 32.0500174 8 31 C7.68076508 28.9427083 7.48838648 26.88386479 7.28125 24.8125 C7.18001957 22.9832467 7.18001957 22.9832467 6 22 C5.9175 21.030625 5.835 20.06125 5.75 19.0625 C5.21544835 14.66830423 3.20949361 11.24403116 1.05859375 7.4296875 C-0.10763585 4.75295388 -0.20039918 2.8878035 0 0 Z " fill="#27ABDC" transform="translate(235,174)"/>
<path d="M0 0 C0.33 0 0.66 0 1 0 C0.99214478 1.41925781 0.99214478 1.41925781 0.98413086 2.8671875 C0.96569321 6.46060191 0.9544302 10.0540124 0.94506836 13.64746094 C0.94011492 15.18718169 0.93335032 16.72689794 0.92456055 18.26660156 C0.86555159 28.88821417 1.19998499 39.40769305 2 50 C-0.28062828 46.57905758 -0.21925007 45.31812778 -0.125 41.3125 C-0.10695313 40.31863281 -0.08890625 39.32476562 -0.0703125 38.30078125 C-0.04710937 37.54152344 -0.02390625 36.78226563 0 36 C-0.66 36 -1.32 36 -2 36 C-2.02465881 32.03069011 -2.04284023 28.06140966 -2.05493164 24.09204102 C-2.05997057 22.74079614 -2.06680177 21.38955674 -2.07543945 20.03833008 C-2.08752419 18.09979566 -2.09269828 16.161222 -2.09765625 14.22265625 C-2.10289307 13.05484619 -2.10812988 11.88703613 -2.11352539 10.68383789 C-2 8 -2 8 -1 7 C-0.63239269 4.67182036 -0.29758419 2.3381615 0 0 Z " fill="#FCF9D2" transform="translate(13,198)"/>
<path d="M0 0 C0.33 0 0.66 0 1 0 C6.56489428 38.87021145 6.56489428 38.87021145 0 52 C0 34.84 0 17.68 0 0 Z " fill="#F9F8C7" transform="translate(347,192)"/>
<path d="M0 0 C0.66 0 1.32 0 2 0 C2.66 1.98 3.32 3.96 4 6 C4.66 6 5.32 6 6 6 C6.66 8.64 7.32 11.28 8 14 C8.66 14 9.32 14 10 14 C10 15.65 10 17.3 10 19 C10.66 19 11.32 19 12 19 C12.34933594 20.20398438 12.69867188 21.40796875 13.05859375 22.6484375 C13.51812917 24.2239875 13.97777006 25.79950675 14.4375 27.375 C14.66759766 28.1690625 14.89769531 28.963125 15.13476562 29.78125 C15.35712891 30.54179687 15.57949219 31.30234375 15.80859375 32.0859375 C16.01282959 32.7876709 16.21706543 33.4894043 16.42749023 34.21240234 C16.97376321 36.07510758 16.97376321 36.07510758 18 38 C18.07033769 39.87379605 18.0843022 41.75001102 18.0625 43.625 C18.05347656 44.62789062 18.04445313 45.63078125 18.03515625 46.6640625 C18.02355469 47.43492187 18.01195312 48.20578125 18 49 C17.67 49 17.34 49 17 49 C15.76025946 45.0151197 14.86123589 41.19146079 14.25 37.0625 C12.42107706 26.6073972 8.04916575 16.44226773 3.078125 7.11328125 C1.89455519 4.79331288 0.93592179 2.42914246 0 0 Z " fill="#E7DE43" transform="translate(295,148)"/>
<path d="M0 0 C1.43608306 2.87216613 0.53827262 4.85541551 0 8 C-0.07871404 10.38173448 -0.10784007 12.76542442 -0.09765625 15.1484375 C-0.0962413 15.80582916 -0.09482635 16.46322083 -0.09336853 17.14053345 C-0.08781762 19.21873731 -0.07527465 21.29682927 -0.0625 23.375 C-0.05747864 24.79296718 -0.05291685 26.21093607 -0.04882812 27.62890625 C-0.03786437 31.08597322 -0.02063421 34.54297567 0 38 C-2.03065831 34.95401253 -2.29482404 33.87187319 -2.5625 30.375 C-2.58977223 27.38885578 -2.58977223 27.38885578 -4 25 C-4.12617338 22.73181338 -4.17580246 20.45916315 -4.1875 18.1875 C-4.20167969 16.94355469 -4.21585937 15.69960937 -4.23046875 14.41796875 C-4.01246915 11.18492388 -3.60735343 9.71055542 -2 7 C-1.30269194 4.6756398 -0.63087848 2.34326294 0 0 Z " fill="#C4F0FB" transform="translate(117,208)"/>
<path d="M0 0 C1.46726798 3.81489674 0.43336419 6.29011622 -1 10 C-1.66 10 -2.32 10 -3 10 C-3.10957031 10.54527344 -3.21914063 11.09054688 -3.33203125 11.65234375 C-4.19195461 15.74222314 -5.17708239 19.67927632 -6.5625 23.625 C-7.88766699 27.43318192 -8.57390404 30.99469795 -9 35 C-9.66 35 -10.32 35 -11 35 C-11.33 35.66 -11.66 36.32 -12 37 C-11.00354081 26.23824077 -7.27377561 16.86149518 -3 7 C-2.39562527 5.58342208 -1.79141736 4.16677296 -1.1875 2.75 C-0.5996875 1.38875 -0.5996875 1.38875 0 0 Z " fill="#FBF6C0" transform="translate(62,157)"/>
<path d="M0 0 C0.33 0 0.66 0 1 0 C1.15855469 0.99257812 1.31710938 1.98515625 1.48046875 3.0078125 C3.07836208 12.48715912 5.55096915 21.00747731 9 30 C11.34894091 36.49275362 11.34894091 36.49275362 10 40 C8.23537317 36.91190305 8 35.76687864 8 32 C7.34 32 6.68 32 6 32 C4.1462285 27.85910781 3.24558172 23.6880361 2.4375 19.25 C1.96081277 14.76030709 1.96081277 14.76030709 0 11 C-0.07226502 9.14712498 -0.0838122 7.29166122 -0.0625 5.4375 C-0.05347656 4.42558594 -0.04445313 3.41367188 -0.03515625 2.37109375 C-0.02355469 1.58863281 -0.01195312 0.80617187 0 0 Z " fill="#FAF7BF" transform="translate(15,248)"/>
<path d="M0 0 C0.33 0 0.66 0 1 0 C1.05534912 0.92224365 1.11069824 1.8444873 1.16772461 2.79467773 C1.3765306 6.25572935 1.58737976 9.71664449 1.79956055 13.17749023 C1.89053373 14.66800128 1.98072065 16.15856055 2.07006836 17.64916992 C2.53851246 25.45569931 3.0284278 33.2361753 4 41 C1.75866966 37.63800449 1.09690717 34.64155971 0.375 30.75 C0.24383789 30.04560791 0.11267578 29.34121582 -0.02246094 28.61547852 C-1.66684738 19.03852918 -1.51655894 9.60079649 0 0 Z " fill="#C7F3FC" transform="translate(193,67)"/>
<path d="M0 0 C0.66 0.33 1.32 0.66 2 1 C1.71801758 1.50225098 1.43603516 2.00450195 1.14550781 2.52197266 C-4.57823609 12.80455435 -9.46965726 22.42462612 -12 34 C-12.33 34 -12.66 34 -13 34 C-12.88597936 31.72858891 -12.75841495 29.45785448 -12.625 27.1875 C-12.55539063 25.92292969 -12.48578125 24.65835938 -12.4140625 23.35546875 C-12 20 -12 20 -10 17 C-9.34 17 -8.68 17 -8 17 C-7.34 14.03 -6.68 11.06 -6 8 C-5.34 8 -4.68 8 -4 8 C-3.34 6.02 -2.68 4.04 -2 2 C-1.34 2 -0.68 2 0 2 C0 1.34 0 0.68 0 0 Z " fill="#C4F1F9" transform="translate(179,42)"/>
<path d="M0 0 C7.71820339 7.71820339 9.0624324 24.91195646 9.12963867 35.1784668 C9.12296756 38.78683391 9.07143901 42.39233008 9 46 C8.67 46 8.34 46 8 46 C7.92483154 45.17761841 7.92483154 45.17761841 7.84814453 44.33862305 C6.91290383 28.04818232 6.91290383 28.04818232 2.9375 12.40234375 C2 10 2 10 2 7 C1.34 7 0.68 7 0 7 C0 4.69 0 2.38 0 0 Z " fill="#2BABDA" transform="translate(189,311)"/>
<path d="M0 0 C0.33 0 0.66 0 1 0 C1.125 7.625 1.125 7.625 0 11 C-0.09627338 13.69848628 -0.13931086 16.36490376 -0.125 19.0625 C-0.12886719 19.79533203 -0.13273438 20.52816406 -0.13671875 21.28320312 C-0.21095757 25.27120188 -0.21095757 25.27120188 1 29 C1.07092842 31.2072923 1.08415025 33.41667452 1.0625 35.625 C1.05347656 36.81351563 1.04445312 38.00203125 1.03515625 39.2265625 C1.01775391 40.59941406 1.01775391 40.59941406 1 42 C-3.20376032 35.69435953 -2.1829986 27.395274 -2.1875 20.0625 C-2.19974609 19.01642578 -2.21199219 17.97035156 -2.22460938 16.89257812 C-2.23591498 10.89683655 -1.74799913 5.74145169 0 0 Z " fill="#2FADDC" transform="translate(166,76)"/>
<path d="M0 0 C0.93423645 3.01031744 1.04449911 3.86650268 0 7 C-0.66 7 -1.32 7 -2 7 C-1.938125 8.051875 -1.87625 9.10375 -1.8125 10.1875 C-2 14 -2 14 -3.4375 16.3125 C-5.78023477 20.34200381 -5.6658186 24.42100378 -6 29 C-6.29469712 31.34097431 -6.64500781 33.66719419 -7 36 C-8.32 35.67 -9.64 35.34 -11 35 C-10.34 35 -9.68 35 -9 35 C-9.061875 34.113125 -9.12375 33.22625 -9.1875 32.3125 C-9.14318623 21.3005284 -4.87165021 9.74330041 0 0 Z " fill="#FAF7C2" transform="translate(163,51)"/>
<path d="M0 0 C0.33 0.66 0.66 1.32 1 2 C0.05492559 3.91430407 -0.9853727 5.78176305 -2.0625 7.625 C-7.87990386 17.96656199 -12.35432232 29.19651874 -14 41 C-14.33 41 -14.66 41 -15 41 C-14.93564087 25.81124566 -7.76477101 12.612826 0 0 Z " fill="#2DABD8" transform="translate(132,175)"/>
<path d="M0 0 C0.66 0.99 1.32 1.98 2 3 C1.34 3 0.68 3 0 3 C0.061875 3.9075 0.12375 4.815 0.1875 5.75 C-0.02691217 9.46647761 -0.77056723 10.17033533 -3 13 C-3.70491267 15.32206525 -4.37212429 17.65593068 -5 20 C-5.5259375 21.0209375 -5.5259375 21.0209375 -6.0625 22.0625 C-7.31006122 24.6407932 -7.6152211 27.17828807 -8 30 C-8.66 30 -9.32 30 -10 30 C-9.41250347 24.03650782 -7.69227227 18.89501917 -5.5625 13.3125 C-5.09360352 12.05083008 -5.09360352 12.05083008 -4.61523438 10.76367188 C-3.23099919 7.07335355 -1.81066113 3.50515918 0 0 Z " fill="#CEF6FD" transform="translate(157,161)"/>
<path d="M0 0 C6.66415228 1.37879013 13.14511847 3.15763905 19.66796875 5.09765625 C22.7737256 5.93872288 25.8190839 6.53179232 29 7 C29 7.66 29 8.32 29 9 C30.98 9 32.96 9 35 9 C35 9.33 35 9.66 35 10 C29.08492466 10.32726851 24.32740037 10.13339038 18.85546875 7.78515625 C16.78589858 6.86236473 16.78589858 6.86236473 13.625 6.0625 C8.94682026 4.69130939 4.49985548 2.86513124 0 1 C0 0.67 0 0.34 0 0 Z " fill="#FAF7C1" transform="translate(121,381)"/>
<path d="M0 0 C2.66095113 1.33047556 2.79847906 2.52009349 3.875 5.26171875 C4.22046875 6.13376953 4.5659375 7.00582031 4.921875 7.90429688 C5.27765625 8.82275391 5.6334375 9.74121094 6 10.6875 C6.35578125 11.58662109 6.7115625 12.48574219 7.078125 13.41210938 C12.12883305 26.25560765 12.12883305 26.25560765 12.625 32.375 C12.69976562 33.24898437 12.77453125 34.12296875 12.8515625 35.0234375 C12.90054687 35.67570312 12.94953125 36.32796875 13 37 C12.34 37 11.68 37 11 37 C10.896875 35.700625 10.79375 34.40125 10.6875 33.0625 C9.82733157 25.59995771 7.32448622 19.51753582 3.875 12.875 C1.58486411 8.4421132 0.22609658 4.97412481 0 0 Z " fill="#FBF5BB" transform="translate(298,155)"/>
<path d="M0 0 C0.99 0.33 1.98 0.66 3 1 C2.5359375 2.051875 2.5359375 2.051875 2.0625 3.125 C0.96697322 6.08936657 0.43577008 8.87698108 0 12 C-0.66 12 -1.32 12 -2 12 C-2 14.64 -2 17.28 -2 20 C-2.66 20 -3.32 20 -4 20 C-4 24.29 -4 28.58 -4 33 C-2.68 33.33 -1.36 33.66 0 34 C-1.65 34 -3.3 34 -5 34 C-5.81750814 21.84637905 -3.49425484 11.59343838 0 0 Z " fill="#E8DE4A" transform="translate(207,50)"/>
<path d="M0 0 C0.33 0 0.66 0 1 0 C1.33 10.56 1.66 21.12 2 32 C1.67 32 1.34 32 1 32 C0.855625 30.865625 0.71125 29.73125 0.5625 28.5625 C0.38828522 25.19222799 0.38828522 25.19222799 -1 24 C-1.0990473 22.47392411 -1.13079611 20.94334793 -1.1328125 19.4140625 C-1.13410156 18.48335937 -1.13539062 17.55265625 -1.13671875 16.59375 C-1.13285156 15.6140625 -1.12898438 14.634375 -1.125 13.625 C-1.12886719 12.65304688 -1.13273437 11.68109375 -1.13671875 10.6796875 C-1.13542969 9.74640625 -1.13414063 8.813125 -1.1328125 7.8515625 C-1.13168457 6.99385254 -1.13055664 6.13614258 -1.12939453 5.25244141 C-1 3 -1 3 0 0 Z " fill="#E8DC31" transform="translate(46,208)"/>
<path d="M0 0 C8.83832645 0.72853884 17.78624019 1.47560396 26 5 C26 5.66 26 6.32 26 7 C27.65 7 29.3 7 31 7 C31 7.66 31 8.32 31 9 C32.32 9.33 33.64 9.66 35 10 C33 11 33 11 30.71264648 10.41088867 C29.77493408 10.0832251 28.83722168 9.75556152 27.87109375 9.41796875 C26.31745117 8.88526367 26.31745117 8.88526367 24.73242188 8.34179688 C23.64509766 7.96087891 22.55777344 7.57996094 21.4375 7.1875 C14.33214488 4.71250396 7.38680702 2.46495963 0 1 C0 0.67 0 0.34 0 0 Z " fill="#F9F4B5" transform="translate(210,50)"/>
<path d="M0 0 C0.33 0.66 0.66 1.32 1 2 C0.67 2.99 0.34 3.98 0 5 C0.99 5 1.98 5 3 5 C3.144375 4.360625 3.28875 3.72125 3.4375 3.0625 C4 1 4 1 5 0 C6.99958364 -0.04080783 9.00045254 -0.04254356 11 0 C8.0761589 3.18019683 5.16598831 5.25351309 1.375 7.3125 C-0.06746094 8.11107422 -0.06746094 8.11107422 -1.5390625 8.92578125 C-2.35117188 9.28027344 -3.16328125 9.63476562 -4 10 C-4.66 9.67 -5.32 9.34 -6 9 C-4.02 6.03 -2.04 3.06 0 0 Z " fill="#26ABDC" transform="translate(203,284)"/>
<path d="M0 0 C0.33 0 0.66 0 1 0 C1 4.29 1 8.58 1 13 C0.34 13 -0.32 13 -1 13 C-1 22.57 -1 32.14 -1 42 C-1.33 42 -1.66 42 -2 42 C-2.04995979 37.62582865 -2.08598048 33.25181467 -2.10986328 28.87744141 C-2.11983431 27.39368796 -2.13341605 25.90995371 -2.15087891 24.42626953 C-2.24636112 16.0968506 -2.19160361 8.11165125 0 0 Z " fill="#E8DB34" transform="translate(16,187)"/>
<path d="M0 0 C2.4083591 6.74995885 -1.08457656 15.53643344 -4 21.75 C-6 25 -6 25 -9 26 C-7.47537457 21.21822024 -5.84000736 16.52082321 -3.9375 11.875 C-2.34041318 7.95877177 -1.06711989 4.09062624 0 0 Z " fill="#FBF5C0" transform="translate(341,267)"/>
<path d="M0 0 C0 0.99 0 1.98 0 3 C-0.99 3.33 -1.98 3.66 -3 4 C-4.71125037 5.76369652 -4.71125037 5.76369652 -6.375 7.875 C-8.98354172 10.94679225 -11.22050893 13.38021811 -15 15 C-15.66 14.67 -16.32 14.34 -17 14 C-3.2745098 0 -3.2745098 0 0 0 Z " fill="#F9F4B7" transform="translate(101,112)"/>
<path d="M0 0 C0 0.33 0 0.66 0 1 C-1.18335938 1.18175781 -2.36671875 1.36351562 -3.5859375 1.55078125 C-14.99239868 3.31565816 -14.99239868 3.31565816 -26.0546875 6.546875 C-28.3586702 7.08354567 -29.77830933 6.73724265 -32 6 C-21.58055517 1.25131497 -11.41742163 -0.45467608 0 0 Z " fill="#FBF8C7" transform="translate(164,49)"/>
<path d="M0 0 C0.5534764 2.07553648 1 3.84365964 1 6 C0.01 6.33 -0.98 6.66 -2 7 C-2.33 7.66 -2.66 8.32 -3 9 C-3.66 9 -4.32 9 -5 9 C-5.2475 9.763125 -5.495 10.52625 -5.75 11.3125 C-7.10995558 14.2364045 -8.31585826 15.30004356 -11 17 C-11.66 16.67 -12.32 16.34 -13 16 C-12.09507812 14.89591797 -12.09507812 14.89591797 -11.171875 13.76953125 C-10.37265625 12.79371094 -9.5734375 11.81789063 -8.75 10.8125 C-7.96109375 9.84957031 -7.1721875 8.88664062 -6.359375 7.89453125 C-4.22415228 5.27499477 -2.10643639 2.64270803 0 0 Z " fill="#F9F4C1" transform="translate(317,318)"/>
<path d="M0 0 C-1.32 3.3 -2.64 6.6 -4 10 C-4.33 10 -4.66 10 -5 10 C-4.95875 9.21625 -4.9175 8.4325 -4.875 7.625 C-4.71271266 4.83883881 -4.71271266 4.83883881 -7 3 C-10.13545766 2.97864622 -10.13545766 2.97864622 -13.625 3.375 C-15.40777344 3.54128906 -15.40777344 3.54128906 -17.2265625 3.7109375 C-18.14179688 3.80632813 -19.05703125 3.90171875 -20 4 C-17.44085276 1.44085276 -15.79558351 1.43065115 -12.25 0.875 C-11.22390625 0.70742188 -10.1978125 0.53984375 -9.140625 0.3671875 C-6.06077228 0.00710522 -3.09752203 -0.06491813 0 0 Z " fill="#E7DE43" transform="translate(164,50)"/>
<path d="M0 0 C1.98 0.66 3.96 1.32 6 2 C6 2.99 6 3.98 6 5 C4.68 4.67 3.36 4.34 2 4 C2.3609375 4.54269531 2.721875 5.08539063 3.09375 5.64453125 C3.5578125 6.35996094 4.021875 7.07539062 4.5 7.8125 C5.19609375 8.87404297 5.19609375 8.87404297 5.90625 9.95703125 C7 12 7 12 7 15 C7.66 15 8.32 15 9 15 C8.67 16.32 8.34 17.64 8 19 C6.51993873 16.54220129 5.04091426 14.08378912 3.5625 11.625 C3.14162109 10.92632812 2.72074219 10.22765625 2.28710938 9.5078125 C1.88427734 8.8375 1.48144531 8.1671875 1.06640625 7.4765625 C0.69459229 6.85861816 0.32277832 6.24067383 -0.06030273 5.60400391 C-0.749927 4.42685882 -1.3898767 3.22024659 -2 2 C-1.34 2 -0.68 2 0 2 C0 1.34 0 0.68 0 0 Z " fill="#FAF8DB" transform="translate(318,116)"/>
<path d="M0 0 C0.33 0 0.66 0 1 0 C1.125 7.75 1.125 7.75 0 10 C0.66 10 1.32 10 2 10 C1.34 11.98 0.68 13.96 0 16 C-1.65 16.33 -3.3 16.66 -5 17 C-4.80664062 16.35933594 -4.61328125 15.71867188 -4.4140625 15.05859375 C-2.9059252 10.04889015 -1.42282214 5.03460143 0 0 Z " fill="#E8F8FC" transform="translate(244,237)"/>
<path d="M0 0 C1.56910638 3.13821277 0.12333987 5.39297841 -0.875 8.6875 C-3.12424913 16.47108579 -3.77057975 23.91293624 -4 32 C-4.33 32 -4.66 32 -5 32 C-5.02683987 29.02077407 -5.04676037 26.04178705 -5.0625 23.0625 C-5.07087891 22.21236328 -5.07925781 21.36222656 -5.08789062 20.48632812 C-5.09111328 19.67744141 -5.09433594 18.86855469 -5.09765625 18.03515625 C-5.10289307 17.2862915 -5.10812988 16.53742676 -5.11352539 15.76586914 C-5 14 -5 14 -4 13 C-3.76712992 11.31816052 -3.58735834 9.6287584 -3.4375 7.9375 C-3.35371094 7.01839844 -3.26992187 6.09929688 -3.18359375 5.15234375 C-3.12300781 4.44207031 -3.06242188 3.73179688 -3 3 C-2.34 3 -1.68 3 -1 3 C-0.67 2.01 -0.34 1.02 0 0 Z " fill="#FBF7C5" transform="translate(206,52)"/>
<path d="M0 0 C0.33 0 0.66 0 1 0 C1.59054513 7.97235926 -0.56896812 14.35345218 -5 21 C-5.66 21 -6.32 21 -7 21 C-4.66666667 14 -2.33333333 7 0 0 Z " fill="#D3F7FC" transform="translate(196,368)"/>
<path d="M0 0 C0.33 0.99 0.66 1.98 1 3 C1.99 3.33 2.98 3.66 4 4 C2.63055898 6.94956528 1.12169591 9.52468811 -1 12 C-1.66 12 -2.32 12 -3 12 C-3.33 12.66 -3.66 13.32 -4 14 C-3.36843005 8.94744036 -1.86540627 4.70406799 0 0 Z " fill="#DAF5FA" transform="translate(202,36)"/>
<path d="M0 0 C0.66 0.33 1.32 0.66 2 1 C0.35 3.64 -1.3 6.28 -3 9 C-4.32 8.67 -5.64 8.34 -7 8 C-6.67 8.99 -6.34 9.98 -6 11 C-7.98 11 -9.96 11 -12 11 C-8.19588166 7.08060535 -4.18423892 3.50897269 0 0 Z " fill="#D2F5FC" transform="translate(171,411)"/>
<path d="M0 0 C0.33 0 0.66 0 1 0 C1.02686553 1.97909398 1.04633375 3.95828971 1.0625 5.9375 C1.07410156 7.03964844 1.08570313 8.14179688 1.09765625 9.27734375 C1 12 1 12 0 13 C-0.36760731 15.32817964 -0.70241581 17.6618385 -1 20 C-1.66 20 -2.32 20 -3 20 C-3 21.98 -3 23.96 -3 26 C-3.66 26 -4.32 26 -5 26 C-4.83564453 25.195625 -4.83564453 25.195625 -4.66796875 24.375 C-3.02745157 16.26577686 -1.51370171 8.13362385 0 0 Z " fill="#E9DE42" transform="translate(312,240)"/>
<path d="M0 0 C-1.33333333 0.66666667 -2.66666667 1.33333333 -4 2 C-4.94875 2.495 -5.8975 2.99 -6.875 3.5 C-12.4690749 6.18515595 -16.75885285 7.24964589 -23 7 C-20.20213856 4.20213856 -16.88195813 3.5066951 -13.1875 2.375 C-12.47529297 2.14554688 -11.76308594 1.91609375 -11.02929688 1.6796875 C-7.24793339 0.50435158 -4.00837511 -0.29925001 0 0 Z " fill="#E8E049" transform="translate(144,54)"/>
<path d="M0 0 C0.66 0.33 1.32 0.66 2 1 C1.01 1.33 0.02 1.66 -1 2 C-1 2.66 -1 3.32 -1 4 C-1.69867188 4.26554687 -2.39734375 4.53109375 -3.1171875 4.8046875 C-4.02726562 5.15789062 -4.93734375 5.51109375 -5.875 5.875 C-7.23238281 6.39707031 -7.23238281 6.39707031 -8.6171875 6.9296875 C-11.12217007 7.88530895 -11.12217007 7.88530895 -13 10 C-14.98821313 10.39764263 -16.98944339 10.73775349 -19 11 C-15.68162639 7.12856412 -11.75485077 4.74592177 -7 3 C-5.68 3 -4.36 3 -3 3 C-3 2.34 -3 1.68 -3 1 C-2.01 0.67 -1.02 0.34 0 0 Z " fill="#FAF4BA" transform="translate(131,93)"/>
<path d="M0 0 C3.4375 0.8125 3.4375 0.8125 7 2 C7.33 2.99 7.66 3.98 8 5 C9.62948064 6.22445284 9.62948064 6.22445284 11.5625 7.1875 C12.696875 7.785625 13.83125 8.38375 15 9 C15 9.66 15 10.32 15 11 C15.99 11 16.98 11 18 11 C18.33 11.99 18.66 12.98 19 14 C11.57625558 11.3040785 4.4265474 6.6398211 0 0 Z " fill="#FAF6C0" transform="translate(92,322)"/>
<path d="M0 0 C0.67578125 1.765625 0.67578125 1.765625 1 4 C-0.14453125 5.921875 -0.14453125 5.921875 -1.8125 7.75 C-2.62654297 8.67039062 -2.62654297 8.67039062 -3.45703125 9.609375 C-5 11 -5 11 -7 11 C-7.66 12.32 -8.32 13.64 -9 15 C-9 11.20669168 -7.82289319 9.98315199 -5.625 6.9375 C-4.99851562 6.05964844 -4.37203125 5.18179688 -3.7265625 4.27734375 C-2 2 -2 2 0 0 Z " fill="#E8E045" transform="translate(52,111)"/>
<path d="M0 0 C5.47035213 3.79037089 9.89962427 7.75027653 14 13 C13.01 13.495 13.01 13.495 12 14 C12 13.34 12 12.68 12 12 C10.68 12 9.36 12 8 12 C7.87625 11.360625 7.7525 10.72125 7.625 10.0625 C7.41875 9.381875 7.2125 8.70125 7 8 C6.34 7.67 5.68 7.34 5 7 C5 6.34 5 5.68 5 5 C3.68 5 2.36 5 1 5 C0.67 5 0.34 5 0 5 C0 3.35 0 1.7 0 0 Z " fill="#FAF6C6" transform="translate(265,114)"/>
<path d="M0 0 C0.66 0.33 1.32 0.66 2 1 C-0.39721488 4.16774824 -2.58905886 6.90942317 -6 9 C-6.99 9 -7.98 9 -9 9 C-9 9.66 -9 10.32 -9 11 C-10.32 10.67 -11.64 10.34 -13 10 C-8.71 6.7 -4.42 3.4 0 0 Z " fill="#FBF5C8" transform="translate(282,354)"/>
<path d="M0 0 C1.49341969 2.98683937 0.40648676 4.95160978 -0.4375 8.125 C-0.72496094 9.22070312 -1.01242187 10.31640625 -1.30859375 11.4453125 C-1.65083984 12.70988281 -1.65083984 12.70988281 -2 14 C-2.66 14 -3.32 14 -4 14 C-4.2165625 14.928125 -4.2165625 14.928125 -4.4375 15.875 C-5 18 -5 18 -6 20 C-6.66 20 -7.32 20 -8 20 C-6.62843522 15.54241445 -4.87249316 11.36479833 -2.953125 7.125 C-1.89942718 4.77577206 -0.92941422 2.40098673 0 0 Z " fill="#E9E04E" transform="translate(305,267)"/>
<path d="M0 0 C1.79210776 3.11260821 2.31478453 5.61934317 2.5625 9.1875 C2.54989247 12.40003798 2.54989247 12.40003798 4 15 C4.07179964 16.51928038 4.08392007 18.04167482 4.0625 19.5625 C4.05347656 20.38878906 4.04445313 21.21507812 4.03515625 22.06640625 C4.02355469 22.70449219 4.01195312 23.34257812 4 24 C3.67 24 3.34 24 3 24 C1.04170706 15.91038514 -0.51917486 8.34525522 0 0 Z " fill="#FDF8CE" transform="translate(49,234)"/>
<path d="M0 0 C0.33 0 0.66 0 1 0 C1.26554688 1.00160156 1.53109375 2.00320312 1.8046875 3.03515625 C2.16142431 4.37761321 2.51819707 5.72006061 2.875 7.0625 C3.13603516 8.04766602 3.13603516 8.04766602 3.40234375 9.05273438 C4.55421582 13.38292014 5.75720665 17.69500861 7 22 C4.65398514 19.86725921 3.13735551 17.97462211 2 15 C1.875 12.25 1.875 12.25 2 10 C1.34 10 0.68 10 0 10 C0 6.7 0 3.4 0 0 Z " fill="#25A9DB" transform="translate(145,230)"/>
<path d="M0 0 C3.22426271 2.82903051 5.34683873 6.41373323 7.625 10 C8.03234375 10.6290625 8.4396875 11.258125 8.859375 11.90625 C10.5711795 14.58165306 11.99150149 16.97450448 13 20 C12.34 20 11.68 20 11 20 C9.5625 18.06640625 9.5625 18.06640625 8 15.5625 C6.0470084 12.18993349 6.0470084 12.18993349 3 10 C2.1484375 7.71484375 2.1484375 7.71484375 1.375 4.9375 C1.11460937 4.01839844 0.85421875 3.09929687 0.5859375 2.15234375 C0.39257812 1.44207031 0.19921875 0.73179687 0 0 Z " fill="#C5F5FC" transform="translate(176,146)"/>
<path d="M0 0 C2.23960447 2.87949147 4.29864224 5.76742026 6 9 C5.67 9.66 5.34 10.32 5 11 C4.34 10.34 3.68 9.68 3 9 C0.89179203 9.3185177 0.89179203 9.3185177 -1 10 C-1.125 3.375 -1.125 3.375 0 0 Z " fill="#16AAE6" transform="translate(201,121)"/>
<path d="M0 0 C1 3 1 3 0.21484375 4.71875 C-2.72989719 8.82517773 -5.16687434 11.08922939 -10 13 C-8.56501627 9.79111679 -6.78256013 7.42193016 -4.4375 4.8125 C-3.81746094 4.11769531 -3.19742188 3.42289063 -2.55859375 2.70703125 C-1.72141231 1.79011824 -0.8779528 0.8779528 0 0 Z " fill="#1BACDE" transform="translate(192,29)"/>
<path d="M0 0 C0.33 0 0.66 0 1 0 C1.09765625 6.15234375 1.09765625 6.15234375 1 8 C0.67 8.33 0.34 8.66 0 9 C-0.144375 10.11375 -0.28875 11.2275 -0.4375 12.375 C-1 16 -1 16 -3 19 C-3.66 19 -4.32 19 -5 19 C-4.35561067 16.39546825 -3.7095496 13.7913709 -3.0625 11.1875 C-2.88009766 10.44951172 -2.69769531 9.71152344 -2.50976562 8.95117188 C-1.7577385 5.92939016 -0.98514427 2.95543282 0 0 Z " fill="#29ADDE" transform="translate(170,377)"/>
<path d="M0 0 C0.66 0 1.32 0 2 0 C3.66666667 3.33333333 5.33333333 6.66666667 7 10 C7.3609375 10.70125 7.721875 11.4025 8.09375 12.125 C9.32363625 14.66959223 10.1441862 17.31029949 11 20 C8.74159421 17.91797566 7.31245556 15.99269041 5.95703125 13.2421875 C5.60576172 12.53449219 5.25449219 11.82679688 4.89257812 11.09765625 C4.35793945 9.99744141 4.35793945 9.99744141 3.8125 8.875 C3.44447266 8.13378906 3.07644531 7.39257812 2.69726562 6.62890625 C0 1.15430775 0 1.15430775 0 0 Z " fill="#E5DE41" transform="translate(29,292)"/>
<path d="M0 0 C0.33 0.66 0.66 1.32 1 2 C0.51789063 2.67546875 0.03578125 3.3509375 -0.4609375 4.046875 C-1.09257812 4.93890625 -1.72421875 5.8309375 -2.375 6.75 C-3.00148438 7.63171875 -3.62796875 8.5134375 -4.2734375 9.421875 C-6.00993798 11.8769497 -6.00993798 11.8769497 -7.0625 14.25 C-8.43591434 16.81370677 -10.31767232 17.15294915 -13 18 C-12.64808594 17.53851563 -12.29617188 17.07703125 -11.93359375 16.6015625 C-7.81655641 11.16234345 -3.88391248 5.60754228 0 0 Z " fill="#E9E155" transform="translate(293,292)"/>
<path d="M0 0 C-1.78881736 1.00508801 -3.58114696 2.00392736 -5.375 3 C-6.37273437 3.556875 -7.37046875 4.11375 -8.3984375 4.6875 C-11 6 -11 6 -13 6 C-12.7734375 4.11328125 -12.7734375 4.11328125 -12 2 C-10.0390625 0.91796875 -10.0390625 0.91796875 -7.625 0.1875 C-6.83351562 -0.06644531 -6.04203125 -0.32039063 -5.2265625 -0.58203125 C-3 -1 -3 -1 0 0 Z " fill="#FBF6D4" transform="translate(249,337)"/>
<path d="M0 0 C1.90191102 6.44933736 -0.05382614 12.77224366 -2 19 C-2.66 19 -3.32 19 -4 19 C-3.46048934 12.31006781 -2.11293829 6.36539272 0 0 Z " fill="#E7DD41" transform="translate(21,168)"/>
<path d="M0 0 C1.17457863 3.52373588 0.83119177 4.02066285 -0.6875 7.25 C-1.05746094 8.03761719 -1.42742187 8.82523437 -1.80859375 9.63671875 C-3.42185264 12.83678967 -5.16587685 15.92129329 -7 19 C-7.33 19 -7.66 19 -8 19 C-8.1875 16.6875 -8.1875 16.6875 -8 14 C-6.5625 12.4375 -6.5625 12.4375 -5 11 C-4.28552357 8.89667109 -4.28552357 8.89667109 -4 7 C-3.34 7 -2.68 7 -2 7 C-2 5.35 -2 3.7 -2 2 C-1.34 2 -0.68 2 0 2 C0 1.34 0 0.68 0 0 Z " fill="#E7DE43" transform="translate(333,286)"/>
<path d="M0 0 C0.99 0 1.98 0 3 0 C4.03444249 2.57861025 5.05272284 5.16174635 6.0625 7.75 C6.35705078 8.47960937 6.65160156 9.20921875 6.95507812 9.9609375 C7.22900391 10.66992188 7.50292969 11.37890625 7.78515625 12.109375 C8.04176025 12.75874023 8.29836426 13.40810547 8.56274414 14.07714844 C9.08330284 16.36632786 8.72364304 17.79256664 8 20 C5.33333333 13.33333333 2.66666667 6.66666667 0 0 Z " fill="#C8F6FE" transform="translate(234,171)"/>
<path d="M0 0 C-0.6875 2.4375 -0.6875 2.4375 -2 5 C-4.375 5.75 -4.375 5.75 -7 6 C-8.33542939 6.32483418 -9.66961551 6.6550855 -11 7 C-11 6.34 -11 5.68 -11 5 C-9.54462432 4.16151196 -8.08559627 3.32936066 -6.625 2.5 C-5.81289062 2.0359375 -5.00078125 1.571875 -4.1640625 1.09375 C-2 0 -2 0 0 0 Z " fill="#DCF6FC" transform="translate(159,422)"/>
<path d="M0 0 C3.3 0 6.6 0 10 0 C10.33 0.99 10.66 1.98 11 3 C13.00016466 4.20882096 13.00016466 4.20882096 15 5 C9.7415998 4.32584613 4.97361654 2.75734451 0 1 C0 0.67 0 0.34 0 0 Z " fill="#E8DE41" transform="translate(121,380)"/>
<path d="M0 0 C2.64 0 5.28 0 8 0 C8 0.66 8 1.32 8 2 C9.093125 1.938125 10.18625 1.87625 11.3125 1.8125 C15 2 15 2 16.9375 3.5 C17.288125 3.995 17.63875 4.49 18 5 C11.69632197 4.41632611 6.01339937 2.95928381 0 1 C0 0.67 0 0.34 0 0 Z " fill="#FAF5BA" transform="translate(141,351)"/>
<path d="M0 0 C7.38091144 2.7927773 7.38091144 2.7927773 9.25 6.4375 C10 9 10 9 9 12 C7.49707257 10.18992669 5.99772829 8.37687764 4.5 6.5625 C3.6646875 5.55316406 2.829375 4.54382813 1.96875 3.50390625 C0 1 0 1 0 0 Z " fill="#1CA9DE" transform="translate(141,298)"/>
<path d="M0 0 C3.38629758 1.45127039 5.48853911 3.32650937 8 6 C8.5775 6.5775 9.155 7.155 9.75 7.75 C10.1625 8.1625 10.575 8.575 11 9 C10.67 9.99 10.34 10.98 10 12 C5.22864787 8.42148591 2.70923672 5.31427203 0 0 Z " fill="#DEF8FC" transform="translate(173,283)"/>
<path d="M0 0 C4.59092706 -0.22058508 8.05455252 0.4638409 12.375 2 C13.43460938 2.37125 14.49421875 2.7425 15.5859375 3.125 C16.38257813 3.41375 17.17921875 3.7025 18 4 C18 4.33 18 4.66 18 5 C16.00045254 5.04254356 13.99958364 5.04080783 12 5 C11.67 4.67 11.34 4.34 11 4 C9.31816052 3.76712992 7.6287584 3.58735834 5.9375 3.4375 C4.55884766 3.31181641 4.55884766 3.31181641 3.15234375 3.18359375 C2.08693359 3.09271484 2.08693359 3.09271484 1 3 C0.67 2.01 0.34 1.02 0 0 Z " fill="#FCF7C8" transform="translate(202,84)"/>
<path d="M0 0 C0.66 0.33 1.32 0.66 2 1 C1.505 1.61875 1.01 2.2375 0.5 2.875 C-1.19222773 4.83880904 -1.19222773 4.83880904 -1 7 C-3.98241547 7.77321882 -6.97580475 8.41196203 -10 9 C-9.67 8.34 -9.34 7.68 -9 7 C-8.34 7 -7.68 7 -7 7 C-6.67 6.01 -6.34 5.02 -6 4 C-4.04402816 2.60287726 -2.04563599 1.26220093 0 0 Z " fill="#E8DE3A" transform="translate(89,77)"/>
<path d="M0 0 C1.32 0.33 2.64 0.66 4 1 C4 1.66 4 2.32 4 3 C4.99 3.33 5.98 3.66 7 4 C7 4.99 7 5.98 7 7 C7.99 7 8.98 7 10 7 C10.33 8.65 10.66 10.3 11 12 C6.43951988 8.38748484 2.98334854 5.01202555 0 0 Z " fill="#E8DE3D" transform="translate(51,328)"/>
<path d="M0 0 C0.66 0.33 1.32 0.66 2 1 C-1.73572939 6.66384778 -1.73572939 6.66384778 -5.3359375 7.62109375 C-7.56793055 7.84992584 -9.75687845 7.99022605 -12 8 C-9.72254211 5.51017465 -7.37664762 3.89631003 -4.4375 2.25 C-3.65246094 1.80140625 -2.86742187 1.3528125 -2.05859375 0.890625 C-1.37925781 0.59671875 -0.69992187 0.3028125 0 0 Z " fill="#FCF7D4" transform="translate(262,368)"/>
<path d="M0 0 C0.33 1.32 0.66 2.64 1 4 C-1.02478632 6.81220322 -3.96745176 8.40791217 -7 10 C-7.99 10 -8.98 10 -10 10 C-6.7 6.7 -3.4 3.4 0 0 Z " fill="#F9F6C5" transform="translate(298,340)"/>
<path d="M0 0 C4.54075781 4.14010271 7.71842138 8.82390176 11 14 C9.0625 13.1875 9.0625 13.1875 7 12 C6.67 11.01 6.34 10.02 6 9 C5.34 9 4.68 9 4 9 C3.34 8.34 2.68 7.68 2 7 C1.67 7 1.34 7 1 7 C0.67 4.69 0.34 2.38 0 0 Z " fill="#E8DE43" transform="translate(73,301)"/>
<path d="M0 0 C0.99 0.33 1.98 0.66 3 1 C4.23867161 3.61497339 5.08503983 6.25511949 6 9 C6.66 9 7.32 9 8 9 C8.66 11.31 9.32 13.62 10 16 C7.00123678 13.19680829 4.83677273 10.40565083 2.75 6.875 C2.22921875 6.00617188 1.7084375 5.13734375 1.171875 4.2421875 C0 2 0 2 0 0 Z " fill="#CFF8FD" transform="translate(203,123)"/>
<path d="M0 0 C4.33409466 3.18683431 7.6189962 6.86378916 11 11 C10.67 11.66 10.34 12.32 10 13 C8.99403703 12.0479279 7.99538437 11.08812654 7 10.125 C6.443125 9.59132813 5.88625 9.05765625 5.3125 8.5078125 C4 7 4 7 4 5 C2.35 5 0.7 5 -1 5 C-0.67 3.35 -0.34 1.7 0 0 Z " fill="#E7DF44" transform="translate(301,101)"/>
<path d="M0 0 C0 0.99 0 1.98 0 3 C0.66 3 1.32 3 2 3 C2.33 2.01 2.66 1.02 3 0 C3 1.32 3 2.64 3 4 C0.69 4 -1.62 4 -4 4 C-4 3.34 -4 2.68 -4 2 C-5.98 2 -7.96 2 -10 2 C-10 1.67 -10 1.34 -10 1 C-6.59437148 0.22157062 -3.49234244 -0.09978121 0 0 Z " fill="#ECE04B" transform="translate(154,386)"/>
<path d="M0 0 C0.33 0 0.66 0 1 0 C1.20086443 3.71599191 1.1519437 4.77208445 -1 8 C-1.66 8 -2.32 8 -3 8 C-2.67 8.99 -2.34 9.98 -2 11 C-2.66 11.66 -3.32 12.32 -4 13 C-4.99 12.67 -5.98 12.34 -7 12 C-5.85865673 9.99743426 -4.71181367 7.99800203 -3.5625 6 C-2.92441406 4.88625 -2.28632813 3.7725 -1.62890625 2.625 C-1.09136719 1.75875 -0.55382812 0.8925 0 0 Z " fill="#D7FAFD" transform="translate(238,254)"/>
<path d="M0 0 C1.48550695 2.97101391 0.82306972 4.83434722 0 8 C-1.9375 10.375 -1.9375 10.375 -4 12 C-4.66 12 -5.32 12 -6 12 C-4.68139111 7.38486888 -2.78644563 3.90102388 0 0 Z " fill="#1FA9DD" transform="translate(181,42)"/>
<path d="M0 0 C0.33 0.66 0.66 1.32 1 2 C3.02463255 2.65213292 3.02463255 2.65213292 5 3 C3.71475739 3.86380259 2.42157581 4.71580369 1.125 5.5625 C0.40570313 6.03816406 -0.31359375 6.51382812 -1.0546875 7.00390625 C-1.69664062 7.33261719 -2.33859375 7.66132813 -3 8 C-3.66 7.67 -4.32 7.34 -5 7 C-3.35 4.69 -1.7 2.38 0 0 Z " fill="#2EAAD6" transform="translate(153,419)"/>
<path d="M0 0 C2.49552403 2.27597646 4.06622986 4.60721178 5.6875 7.5625 C6.12449219 8.34753906 6.56148437 9.13257813 7.01171875 9.94140625 C8 12 8 12 8 14 C7.34 14 6.68 14 6 14 C4 11 4 11 4 7 C3.34 7 2.68 7 2 7 C2 6.01 2 5.02 2 4 C1.34 4 0.68 4 0 4 C0 2.68 0 1.36 0 0 Z " fill="#D1F7FE" transform="translate(203,185)"/>
<path d="M0 0 C0.66 0.33 1.32 0.66 2 1 C-0.475 5.455 -0.475 5.455 -3 10 C-3.33 10 -3.66 10 -4 10 C-4 8.35 -4 6.7 -4 5 C-4.66 4.67 -5.32 4.34 -6 4 C-4.02 2.68 -2.04 1.36 0 0 Z " fill="#2CA9D8" transform="translate(213,12)"/>
<path d="M0 0 C0.33 0.99 0.66 1.98 1 3 C-2.14594657 7.671254 -4.3616163 9.68874798 -10 11 C-7.22169429 7.3984926 -4.2594334 4.17134061 -1 1 C-0.67 0.67 -0.34 0.34 0 0 Z " fill="#CFF5FC" transform="translate(224,274)"/>
<path d="M0 0 C3.50281042 4.67041389 3.5344992 6.41399038 4 12 C3.34 12 2.68 12 2 12 C1.67 10.68 1.34 9.36 1 8 C0.34 8.66 -0.32 9.32 -1 10 C-0.67 6.7 -0.34 3.4 0 0 Z " fill="#CFF5FC" transform="translate(213,204)"/>
<path d="M0 0 C0.33 0 0.66 0 1 0 C1.53181175 2.24743045 2.05007126 4.49807102 2.5625 6.75 C2.85253906 8.00296875 3.14257812 9.2559375 3.44140625 10.546875 C3.93444283 13.59473748 4.07666879 15.17641828 3 18 C3 17.34 3 16.68 3 16 C2.34 16 1.68 16 1 16 C0.67 10.72 0.34 5.44 0 0 Z " fill="#C1F3FD" transform="translate(164,108)"/>
<path d="M0 0 C1.90747183 2.86120775 3.00353706 5.35254993 4.1875 8.5625 C4.55230469 9.53316406 4.91710937 10.50382812 5.29296875 11.50390625 C6 14 6 14 5 16 C2.90250005 13.64031256 2.03094296 12.45383006 1.8125 9.25 C1.874375 8.5075 1.93625 7.765 2 7 C1.34 7 0.68 7 0 7 C0 4.69 0 2.38 0 0 Z " fill="#29ACDC" transform="translate(195,105)"/>
<path d="M0 0 C0.66 1.32 1.32 2.64 2 4 C0.35 4.33 -1.3 4.66 -3 5 C-3.33 6.32 -3.66 7.64 -4 9 C-4.99 8.67 -5.98 8.34 -7 8 C-4.69 5.36 -2.38 2.72 0 0 Z " fill="#E9DF3D" transform="translate(60,102)"/>
<path d="M0 0 C-2.84614024 2.84614024 -5.80369142 2.45579076 -9.625 2.625 C-10.68460938 2.68300781 -10.68460938 2.68300781 -11.765625 2.7421875 C-13.50998524 2.83647724 -15.25495691 2.91932891 -17 3 C-14.08149788 1.05433192 -12.42377152 0.4847543 -9.0625 -0.1875 C-8.20785156 -0.36667969 -7.35320312 -0.54585938 -6.47265625 -0.73046875 C-3.98865141 -1.00123705 -2.35550498 -0.77059444 0 0 Z " fill="#F9F5BC" transform="translate(220,387)"/>
<path d="M0 0 C0.66 0 1.32 0 2 0 C1.63030147 2.65614176 1.29524408 3.74758254 -0.77734375 5.51953125 C-1.49019531 5.94621094 -2.20304687 6.37289063 -2.9375 6.8125 C-3.64777344 7.25207031 -4.35804688 7.69164062 -5.08984375 8.14453125 C-6.03537109 8.56798828 -6.03537109 8.56798828 -7 9 C-7.66 8.67 -8.32 8.34 -9 8 C-7.88625 7.4121875 -7.88625 7.4121875 -6.75 6.8125 C-3.80438959 4.87107496 -2.15900188 2.7545886 0 0 Z " fill="#E9DF41" transform="translate(267,322)"/>
<path d="M0 0 C2 0 2 0 4 1.6875 C6.09034259 4.10445862 7.13543477 5.93472329 8 9 C7.67 9.99 7.34 10.98 7 12 C5.82767315 10.3790787 4.6622923 8.75313167 3.5 7.125 C2.8503125 6.22007812 2.200625 5.31515625 1.53125 4.3828125 C0 2 0 2 0 0 Z " fill="#D1F8FE" transform="translate(157,260)"/>
<path d="M0 0 C0.33 0 0.66 0 1 0 C1 4.29 1 8.58 1 13 C0.34 13 -0.32 13 -1 13 C-1.33 13.66 -1.66 14.32 -2 15 C-1.03644647 4.44191344 -1.03644647 4.44191344 0 0 Z " fill="#EADF4D" transform="translate(16,187)"/>
<path d="M0 0 C1.74325447 2.6148817 2.41587957 4.0053433 3.125 6.9375 C3.29257812 7.60652344 3.46015625 8.27554688 3.6328125 8.96484375 C4 11 4 11 4 15 C3.34 15 2.68 15 2 15 C0.58365167 12.16730334 0.6536995 9.52533562 0.4375 6.375 C0.35371094 5.18648437 0.26992188 3.99796875 0.18359375 2.7734375 C0.12300781 1.85820312 0.06242187 0.94296875 0 0 Z " fill="#EADF51" transform="translate(342,175)"/>
<path d="M0 0 C0.99 0 1.98 0 3 0 C3.433125 0.9590625 3.433125 0.9590625 3.875 1.9375 C4.82823451 4.15206079 4.82823451 4.15206079 7 5 C7 6.98 7 8.96 7 11 C5.66104368 9.33784732 4.32869858 7.67036393 3 6 C2.4225 5.278125 1.845 4.55625 1.25 3.8125 C0 2 0 2 0 0 Z " fill="#E5DE34" transform="translate(288,137)"/>
<path d="M0 0 C0.66 0.33 1.32 0.66 2 1 C0.85865673 3.00256574 -0.28818633 5.00199797 -1.4375 7 C-2.39462891 8.670625 -2.39462891 8.670625 -3.37109375 10.375 C-3.90863281 11.24125 -4.44617188 12.1075 -5 13 C-5.33 13 -5.66 13 -6 13 C-6 11.35 -6 9.7 -6 8 C-5.34 8 -4.68 8 -4 8 C-3.34 6.02 -2.68 4.04 -2 2 C-1.34 2 -0.68 2 0 2 C0 1.34 0 0.68 0 0 Z " fill="#CBF6FE" transform="translate(179,42)"/>
<path d="M0 0 C1.28497537 3.85492611 0.4052209 5.40346836 -0.9375 9.1875 C-1.31777344 10.27417969 -1.69804687 11.36085938 -2.08984375 12.48046875 C-2.39019531 13.31191406 -2.69054687 14.14335938 -3 15 C-3.33 15 -3.66 15 -4 15 C-4 12.36 -4 9.72 -4 7 C-3.34 7 -2.68 7 -2 7 C-2 5.35 -2 3.7 -2 2 C-1.34 2 -0.68 2 0 2 C0 1.34 0 0.68 0 0 Z " fill="#21A9DA" transform="translate(199,41)"/>
<path d="M0 0 C0.33 0.66 0.66 1.32 1 2 C0.67 2.66 0.34 3.32 0 4 C2.97 4.495 2.97 4.495 6 5 C4.25 6.5625 4.25 6.5625 2 8 C-0.25 7.6875 -0.25 7.6875 -2 7 C-1.125 1.125 -1.125 1.125 0 0 Z " fill="#1BACE1" transform="translate(156,414)"/>
<path d="M0 0 C-10.37357631 3.44419134 -10.37357631 3.44419134 -16 3 C-11.53158308 -1.28223288 -5.74516216 -1.69277099 0 0 Z " fill="#E8DE45" transform="translate(224,385)"/>
<path d="M0 0 C1.44098611 0.76429661 2.87766054 1.53672555 4.3125 2.3125 C5.11300781 2.74175781 5.91351563 3.17101562 6.73828125 3.61328125 C8.83787272 4.90059554 10.35447721 6.18406708 12 8 C10.68 8 9.36 8 8 8 C8 7.34 8 6.68 8 6 C7.05125 5.938125 6.1025 5.87625 5.125 5.8125 C3.578125 5.4103125 3.578125 5.4103125 2 5 C0.625 2.4375 0.625 2.4375 0 0 Z " fill="#E8DC3B" transform="translate(108,335)"/>
<path d="M0 0 C0.66 0.33 1.32 0.66 2 1 C0.35 3.64 -1.3 6.28 -3 9 C-3.33 7.68 -3.66 6.36 -4 5 C-4.66 4.67 -5.32 4.34 -6 4 C-4.02 2.68 -2.04 1.36 0 0 Z " fill="#32AAD6" transform="translate(165,144)"/>
<path d="M0 0 C0 0.99 0 1.98 0 3 C-0.99 3.33 -1.98 3.66 -3 4 C-4.65637688 5.63044124 -4.65637688 5.63044124 -6.1875 7.5625 C-6.71730469 8.20316406 -7.24710937 8.84382813 -7.79296875 9.50390625 C-8.19128906 9.99761719 -8.58960937 10.49132812 -9 11 C-9 6.94835656 -7.38642331 5.20462558 -5 2 C-2 0 -2 0 0 0 Z " fill="#FBF6D3" transform="translate(101,112)"/>
<path d="M0 0 C0.33 0 0.66 0 1 0 C1.24798276 2.95786664 1.47411854 5.91461298 1.6875 8.875 C1.76033203 9.71675781 1.83316406 10.55851562 1.90820312 11.42578125 C1.96298828 12.23144531 2.01777344 13.03710938 2.07421875 13.8671875 C2.13182373 14.61081543 2.18942871 15.35444336 2.2487793 16.12060547 C2.12563354 17.05090576 2.12563354 17.05090576 2 18 C1.01 18.66 0.02 19.32 -1 20 C-0.67 13.4 -0.34 6.8 0 0 Z " fill="#0CA7E6" transform="translate(172,357)"/>
<path d="M0 0 C1.45350668 3.87601781 1.12977046 8.07001276 0 12 C-1.546875 13.74609375 -1.546875 13.74609375 -3 15 C-2.5547115 9.72684667 -1.91626837 4.98229776 0 0 Z " fill="#C3F3FD" transform="translate(197,50)"/>
<path d="M0 0 C0.66 0.33 1.32 0.66 2 1 C-0.31 4.3 -2.62 7.6 -5 11 C-5.33 9.68 -5.66 8.36 -6 7 C-5.34 7 -4.68 7 -4 7 C-4 6.34 -4 5.68 -4 5 C-3.34 5 -2.68 5 -2 5 C-1.855625 4.360625 -1.71125 3.72125 -1.5625 3.0625 C-1 1 -1 1 0 0 Z " fill="#CCF6FC" transform="translate(153,416)"/>
<path d="M0 0 C0.66 0.33 1.32 0.66 2 1 C1.01 2.485 1.01 2.485 0 4 C-0.66 4 -1.32 4 -2 4 C-2.33 4.99 -2.66 5.98 -3 7 C-4.65 6.67 -6.3 6.34 -8 6 C-5.33333333 4 -2.66666667 2 0 0 Z " fill="#E6DE36" transform="translate(250,335)"/>
<path d="M0 0 C2.66735273 2.48952921 4.55746343 4.63408134 6 8 C4.35 7.67 2.7 7.34 1 7 C0.67 7.66 0.34 8.32 0 9 C0 6.03 0 3.06 0 0 Z " fill="#FAF6D1" transform="translate(38,311)"/>
<path d="M0 0 C1.37562854 1.28965176 2.70766393 2.62689293 4 4 C4 4.66 4 5.32 4 6 C3.34 6 2.68 6 2 6 C1.67 6.99 1.34 7.98 1 9 C0.01 8.67 -0.98 8.34 -2 8 C-1.67 7.05125 -1.34 6.1025 -1 5.125 C0.10159191 2.22937548 0.10159191 2.22937548 0 0 Z " fill="#DFF6FB" transform="translate(132,286)"/>
<path d="M0 0 C0.33 0 0.66 0 1 0 C1.2396943 5.63281599 0.38529821 10.54538831 -1 16 C-1.33 16 -1.66 16 -2 16 C-2 12.37 -2 8.74 -2 5 C-1.34 5 -0.68 5 0 5 C0 3.35 0 1.7 0 0 Z " fill="#FAF7CA" transform="translate(311,240)"/>
<path d="M0 0 C0.66 0.33 1.32 0.66 2 1 C0.35 4.3 -1.3 7.6 -3 11 C-3.33 11 -3.66 11 -4 11 C-4.21952523 7.15830842 -3.72664863 4.45329726 -2 1 C-1.34 0.67 -0.68 0.34 0 0 Z " fill="#D1F9FD" transform="translate(127,180)"/>
<path d="M0 0 C0 4.07746885 -1.52068051 5.83198065 -4 9 C-6.140625 9.6796875 -6.140625 9.6796875 -8 10 C-7.04367001 8.70684939 -6.08486149 7.41553147 -5.125 6.125 C-4.59132812 5.40570313 -4.05765625 4.68640625 -3.5078125 3.9453125 C-2 2 -2 2 0 0 Z " fill="#25ACDC" transform="translate(141,164)"/>
<path d="M0 0 C1.32 0 2.64 0 4 0 C4 1.32 4 2.64 4 4 C4.66 4 5.32 4 6 4 C6 4.66 6 5.32 6 6 C6.66 6 7.32 6 8 6 C7.67 7.32 7.34 8.64 7 10 C5.83043409 8.52312468 4.66441854 7.04343707 3.5 5.5625 C2.8503125 4.73878906 2.200625 3.91507813 1.53125 3.06640625 C0 1 0 1 0 0 Z " fill="#D0F8FE" transform="translate(213,140)"/>
<path d="M0 0 C0 3 0 3 -1.75 5.04296875 C-2.4925 5.75066406 -3.235 6.45835938 -4 7.1875 C-4.7425 7.90292969 -5.485 8.61835937 -6.25 9.35546875 C-7.11625 10.16951172 -7.11625 10.16951172 -8 11 C-8.66 10.67 -9.32 10.34 -10 10 C-7.02911382 6.00073014 -3.87051275 3.07881696 0 0 Z " fill="#E9DF52" transform="translate(71,91)"/>
<path d="M0 0 C2.31 0.33 4.62 0.66 7 1 C7 1.66 7 2.32 7 3 C8.2065625 3.433125 8.2065625 3.433125 9.4375 3.875 C12 5 12 5 13 7 C8.50202887 5.31326082 4.27113698 3.18326108 0 1 C0 0.67 0 0.34 0 0 Z " fill="#E8DD49" transform="translate(232,92)"/>
<path d="M0 0 C0.721875 0.144375 1.44375 0.28875 2.1875 0.4375 C3.5796875 0.7159375 3.5796875 0.7159375 5 1 C6.66666667 1.33333333 8.33333333 1.66666667 10 2 C10 2.66 10 3.32 10 4 C11.32 4.66 12.64 5.32 14 6 C10.44842089 6 8.51236245 5.00581762 5.3125 3.5 C4.31863281 3.0359375 3.32476562 2.571875 2.30078125 2.09375 C1.54152344 1.7328125 0.78226563 1.371875 0 1 C0 0.67 0 0.34 0 0 Z " fill="#FBF4B8" transform="translate(245,61)"/>
<path d="M0 0 C0.99 0 1.98 0 3 0 C1.75023244 3.65316671 1.32901247 4.78065836 -2 7 C-2 6.34 -2 5.68 -2 5 C-2.66 5 -3.32 5 -4 5 C-3.67 4.01 -3.34 3.02 -3 2 C-2.01 2.33 -1.02 2.66 0 3 C0 2.01 0 1.02 0 0 Z " fill="#E7DE34" transform="translate(317,313)"/>
<path d="M0 0 C3.28788824 3.11016455 5.83735988 6.01618925 8 10 C4.18315774 8.44499019 1.80804268 5.96404505 -1 3 C-0.67 2.01 -0.34 1.02 0 0 Z " fill="#CCF5FE" transform="translate(139,296)"/>
<path d="M0 0 C0.556875 0.28875 1.11375 0.5775 1.6875 0.875 C4.08494645 2.0413253 6.51596939 3.0339881 9 4 C8.34 5.32 7.68 6.64 7 8 C5.83035398 6.8572081 4.66435444 5.71068285 3.5 4.5625 C2.8503125 3.92441406 2.200625 3.28632812 1.53125 2.62890625 C0 1 0 1 0 0 Z " fill="#FDF8CF" transform="translate(295,94)"/>
<path d="M0 0 C0.88336837 2.4667645 1.1312406 3.63859372 0.22265625 6.140625 C-0.16019531 6.83671875 -0.54304687 7.5328125 -0.9375 8.25 C-1.31777344 8.95640625 -1.69804687 9.6628125 -2.08984375 10.390625 C-2.39019531 10.92171875 -2.69054687 11.4528125 -3 12 C-3.66 12 -4.32 12 -5 12 C-3.68938409 7.76570244 -2.05643741 3.92592596 0 0 Z " fill="#CFF7FC" transform="translate(212,16)"/>
<path d="M0 0 C1.12894876 0.93274109 2.25300876 1.87140122 3.375 2.8125 C4.00148438 3.33457031 4.62796875 3.85664063 5.2734375 4.39453125 C7 6 7 6 9 9 C6.6875 8.8125 6.6875 8.8125 4 8 C2.06208579 5.36997358 1.03295481 3.09886444 0 0 Z " fill="#FDF7CC" transform="translate(54,333)"/>
<path d="M0 0 C0.33 0.66 0.66 1.32 1 2 C-1.47812494 5.45167403 -2.79606135 7.23163306 -7 8 C-6.21366078 6.85050412 -5.42073742 5.70551011 -4.625 4.5625 C-4.18414062 3.92441406 -3.74328125 3.28632813 -3.2890625 2.62890625 C-2 1 -2 1 0 0 Z " fill="#FBF6D1" transform="translate(311,327)"/>
<path d="M0 0 C1.32 0.33 2.64 0.66 4 1 C0.535 3.97 0.535 3.97 -3 7 C-2.25 2.25 -2.25 2.25 0 0 Z " fill="#FBF8D0" transform="translate(271,315)"/>
<path d="M0 0 C1.32 0.33 2.64 0.66 4 1 C4 1.66 4 2.32 4 3 C4.66 3 5.32 3 6 3 C6.33 4.65 6.66 6.3 7 8 C1.125 3.375 1.125 3.375 0 0 Z " fill="#FBF6C0" transform="translate(79,308)"/>
<path d="M0 0 C0.66 0 1.32 0 2 0 C2.33 0.99 2.66 1.98 3 3 C0.03 5.475 0.03 5.475 -3 8 C-3 6.35 -3 4.7 -3 3 C-2.34 3 -1.68 3 -1 3 C-0.67 2.01 -0.34 1.02 0 0 Z " fill="#CEF1F9" transform="translate(192,24)"/>
<path d="M0 0 C1.47118907 3.82509158 0.45442741 6.28312995 -1 10 C-1.33 10.66 -1.66 11.32 -2 12 C-2.66 12 -3.32 12 -4 12 C-2.66666667 8 -1.33333333 4 0 0 Z " fill="#C2F2FC" transform="translate(193,377)"/>
<path d="M0 0 C0.33 0 0.66 0 1 0 C1.390625 5.859375 1.390625 5.859375 1 8 C-0.32 9.32 -1.64 10.64 -3 12 C-2.01 8.04 -1.02 4.08 0 0 Z " fill="#CBF7FE" transform="translate(244,237)"/>
<path d="M0 0 C3.48331435 3.01887244 4.79157144 5.56909529 6 10 C5.34 9.67 4.68 9.34 4 9 C4 8.34 4 7.68 4 7 C3.34 7 2.68 7 2 7 C0 4 0 4 0 0 Z " fill="#2BABDD" transform="translate(227,160)"/>
<path d="M0 0 C1.32 0 2.64 0 4 0 C4.69710731 1.28650706 5.38242876 2.57940665 6.0625 3.875 C6.63677734 4.95394531 6.63677734 4.95394531 7.22265625 6.0546875 C7.47917969 6.69664063 7.73570312 7.33859375 8 8 C7.67 8.66 7.34 9.32 7 10 C5.83043409 8.52312468 4.66441854 7.04343707 3.5 5.5625 C2.8503125 4.73878906 2.200625 3.91507812 1.53125 3.06640625 C0 1 0 1 0 0 Z " fill="#FCF9CC" transform="translate(308,108)"/>
<path d="M0 0 C2.75 0.25 2.75 0.25 5 1 C4.01 1.495 4.01 1.495 3 2 C2.34 1.67 1.68 1.34 1 1 C1.33 1.99 1.66 2.98 2 4 C0.02 4 -1.96 4 -4 4 C-2.3125 1.9375 -2.3125 1.9375 0 0 Z " fill="#E2F8FC" transform="translate(163,418)"/>
<path d="M0 0 C2 4 2 4 1.125 6.75 C0.75375 7.4925 0.3825 8.235 0 9 C-0.99 9 -1.98 9 -3 9 C-2.01 6.03 -1.02 3.06 0 0 Z " fill="#1CACDD" transform="translate(164,397)"/>
<path d="M0 0 C2.31 0.33 4.62 0.66 7 1 C7.33 2.32 7.66 3.64 8 5 C4.62496331 3.8141763 2.35277269 2.72426311 0 0 Z " fill="#EADF44" transform="translate(245,99)"/>
<path d="M0 0 C1.125 3.75 1.125 3.75 0 6 C1.32 6.33 2.64 6.66 4 7 C2.02 7.33 0.04 7.66 -2 8 C-1.125 2.25 -1.125 2.25 0 0 Z " fill="#E6DE51" transform="translate(202,382)"/>
<path d="M0 0 C0.66 0.33 1.32 0.66 2 1 C0.68 2.65 -0.64 4.3 -2 6 C-3.32 5.67 -4.64 5.34 -6 5 C-4.02 3.35 -2.04 1.7 0 0 Z " fill="#F9F2B8" transform="translate(282,354)"/>
<path d="M0 0 C2.97 0.33 5.94 0.66 9 1 C9 1.99 9 2.98 9 4 C6.03 3.01 3.06 2.02 0 1 C0 0.67 0 0.34 0 0 Z " fill="#FAF5BD" transform="translate(124,344)"/>
<path d="M0 0 C1.98 0 3.96 0 6 0 C6 1.98 6 3.96 6 6 C3.97945196 4.35830472 1.97956942 2.69088222 0 1 C0 0.67 0 0.34 0 0 Z " fill="#FAF7CB" transform="translate(86,316)"/>
<path d="M0 0 C0.66 0.33 1.32 0.66 2 1 C-0.475 4.465 -0.475 4.465 -3 8 C-3.66 6.68 -4.32 5.36 -5 4 C-4.01 4 -3.02 4 -2 4 C-2 3.34 -2 2.68 -2 2 C-1.34 2 -0.68 2 0 2 C0 1.34 0 0.68 0 0 Z " fill="#DAF9FD" transform="translate(135,168)"/>
<path d="M0 0 C0.95465783 2.16967689 1.14401212 3.56328793 0.3984375 5.82421875 C-0.35870385 7.5684743 -1.17609198 9.28627131 -2 11 C-2.66 11 -3.32 11 -4 11 C-2.95902388 7.13351728 -1.96301592 3.50538557 0 0 Z " fill="#E9E058" transform="translate(28,149)"/>
<path d="M0 0 C3.44216672 2.6598561 3.99504674 5.90288286 5 10 C2.9754262 8.06745228 1.57894208 6.36841312 0 4 C0 2.68 0 1.36 0 0 Z " fill="#E8E052" transform="translate(326,135)"/>
<path d="M0 0 C0.33 1.32 0.66 2.64 1 4 C-0.65 5.32 -2.3 6.64 -4 8 C-4 4.09161134 -2.49432124 2.88405893 0 0 Z " fill="#F9F4B7" transform="translate(83,127)"/>
<path d="M0 0 C1.32 0.66 2.64 1.32 4 2 C2.35 3.32 0.7 4.64 -1 6 C-1.625 4.125 -1.625 4.125 -2 2 C-1.34 1.34 -0.68 0.68 0 0 Z " fill="#FBF7E0" transform="translate(55,102)"/>
<path d="M0 0 C-1.75 3.875 -1.75 3.875 -4 5 C-6.125 4.0625 -6.125 4.0625 -8 3 C-2.25 0 -2.25 0 0 0 Z " fill="#E9DE42" transform="translate(112,65)"/>
<path d="M0 0 C0.66 0.33 1.32 0.66 2 1 C1.02433888 2.16959987 0.044375 3.33561177 -0.9375 4.5 C-1.48277344 5.1496875 -2.02804688 5.799375 -2.58984375 6.46875 C-3.05519531 6.9740625 -3.52054688 7.479375 -4 8 C-4.33 8 -4.66 8 -5 8 C-5.3125 5.6875 -5.3125 5.6875 -5 3 C-2.625 1.125 -2.625 1.125 0 0 Z " fill="#21AADD" transform="translate(178,402)"/>
<path d="M0 0 C0.33 0 0.66 0 1 0 C1.66 3.3 2.32 6.6 3 10 C2.01 10 1.02 10 0 10 C0 6.7 0 3.4 0 0 Z " fill="#32B2E0" transform="translate(145,230)"/>
<path d="M0 0 C1 2 1 2 0.25 4.5625 C-1 7 -1 7 -4 8 C-2.87548273 5.0280615 -1.77706209 2.66559313 0 0 Z " fill="#FBF5BC" transform="translate(67,149)"/>
<path d="M0 0 C-4.75 4 -4.75 4 -7 4 C-7 3.01 -7 2.02 -7 1 C-3.375 -1.125 -3.375 -1.125 0 0 Z " fill="#E8E03D" transform="translate(106,108)"/>
<path d="M0 0 C3.91402949 1.26941497 5.79072873 2.51167694 8 6 C5.21788056 5.62403791 3.4120716 5.32681541 1.1875 3.5625 C0 2 0 2 0 0 Z " fill="#FBF7CB" transform="translate(254,106)"/>
<path d="M0 0 C-2.97 1.65 -5.94 3.3 -9 5 C-9 4.34 -9 3.68 -9 3 C-8.34 3 -7.68 3 -7 3 C-6.67 2.01 -6.34 1.02 -6 0 C-3 -1 -3 -1 0 0 Z " fill="#FCF5C1" transform="translate(99,72)"/>
</svg>
